<svg id="Calque_1" data-name="Calque 1" xmlns="http://www.w3.org/2000/svg" viewBox="0 0 249.54 269.65"><defs><style>.cls-1{fill:#f3c2b7;}.cls-2{fill:#b69289;}.cls-3{fill:#321f12;}.cls-4{fill:#432918;}</style></defs><title>albert</title><path class="cls-1" d="M1022.22,459.73s-2.68-7-9.81-3.58c-5,2.35.55,37,9.62,32.73C1022,488.88,1025.49,474.2,1022.22,459.73Z" transform="translate(-1010.54 -339.74)"/><path class="cls-2" d="M1019.93,468.84s-.91-6.39-4.1-7.1-.91,12.07,1.37,16.32S1020.38,481.61,1019.93,468.84Z" transform="translate(-1010.54 -339.74)"/><ellipse class="cls-1" cx="125.87" cy="129.75" rx="119.2" ry="126.75"/><path class="cls-1" d="M1248.64,459.73s2.62-7,9.6-3.58c4.87,2.35-.54,37-9.42,32.73C1248.82,488.88,1245.44,474.2,1248.64,459.73Z" transform="translate(-1010.54 -339.74)"/><path class="cls-2" d="M1251,468.84s.89-6.39,4-7.1.89,12.07-1.34,16.32S1250.57,481.61,1251,468.84Z" transform="translate(-1010.54 -339.74)"/><path class="cls-2" d="M1034.2,489.24s35.51-15.67,51.84-27.53,60.37,8.08,97.6-6.48c0,0,33.42,25.12,60.58,34l-3-56-41.49-34.7-131.28,4.52L1032,440.8Z" transform="translate(-1010.54 -339.74)"/><path class="cls-3" d="M1254.1,447.64c7.42,50.27-15.18,75-15.18,75L1241.1,509,1236,459.76,1200.66,420s-61.54,27.68-119.84,3.46l-43.39,27.69-4.67,56.32.08,13.67s-23.95-46.8-13.55-89c19.68-80,45.52-92.33,117.12-92.33C1207.59,339.74,1239.28,347.32,1254.1,447.64Z" transform="translate(-1010.54 -339.74)"/><path class="cls-4" d="M1080.82,423.42s-35.59-3-53.43-19.29c0,0-26,49.17.84,107.43l4.63,8,7.09-69Z" transform="translate(-1010.54 -339.74)"/><path class="cls-4" d="M1200.66,420s39.53-8.6,44.31-15.83c0,0,28.83,81.32-5.76,116.69,0,0-1.5-53.93-3.26-61.06Z" transform="translate(-1010.54 -339.74)"/><path class="cls-3" d="M1240.8,489.24s-39.82,49.12-73.89,70.24c0,0-7.08,17-28.47,15.62v-.16c-.41,0-.78,0-1.17.08s-.77,0-1.17-.08v.16c-21.4,1.36-28.48-15.62-28.48-15.62-34.07-21.12-73.89-70.24-73.89-70.24l-10.11,11c9.47,106.13,102.16,109.18,113.65,109.15s104.17-3,113.64-109.15Z" transform="translate(-1010.54 -339.74)"/><path class="cls-4" d="M1165.47,423.42c-.21-6.12-.21-12.25-.14-18.37s.3-12.25.58-18.37.78-12.23,1.52-18.32c.38-3.05.81-6.08,1.38-9.1a41.54,41.54,0,0,1,2.55-8.83,44.84,44.84,0,0,0-2.07,8.91c-.47,3-.81,6.06-1.1,9.1q-.86,9.12-1.28,18.29c-.37,6.11-.58,12.22-.82,18.34Z" transform="translate(-1010.54 -339.74)"/><path class="cls-4" d="M1174.52,423.42c-.2-6.12-.21-12.25-.14-18.37s.3-12.25.58-18.37.79-12.23,1.52-18.32c.38-3.05.81-6.08,1.38-9.1a41.54,41.54,0,0,1,2.55-8.83,46.28,46.28,0,0,0-2.07,8.91c-.47,3-.81,6.06-1.09,9.1q-.87,9.12-1.29,18.29c-.36,6.11-.58,12.22-.81,18.34Z" transform="translate(-1010.54 -339.74)"/><path class="cls-4" d="M1188.1,423.42c-.2-6.12-.21-12.25-.14-18.37s.3-12.25.58-18.37.79-12.23,1.52-18.32c.38-3.05.81-6.08,1.38-9.1a41.54,41.54,0,0,1,2.55-8.83,46.28,46.28,0,0,0-2.07,8.91c-.47,3-.81,6.06-1.09,9.1q-.87,9.12-1.29,18.29c-.36,6.11-.58,12.22-.81,18.34Z" transform="translate(-1010.54 -339.74)"/><path class="cls-4" d="M1200.66,420c-.38-5.62-.56-11.25-.66-16.89s0-11.26.11-16.9.51-11.27,1.11-16.88c.32-2.8.7-5.6,1.22-8.37a36.71,36.71,0,0,1,2.39-8.11,39.6,39.6,0,0,0-1.9,8.19c-.43,2.77-.71,5.57-.94,8.37q-.67,8.4-.88,16.83c-.21,5.62-.27,11.25-.34,16.87Z" transform="translate(-1010.54 -339.74)"/><path class="cls-4" d="M1130.62,423.42l-.63-18.35c-.24-6.12-.45-12.23-.81-18.34s-.72-12.21-1.29-18.29c-.29-3-.63-6.08-1.1-9.1a44.84,44.84,0,0,0-2.07-8.91,41.56,41.56,0,0,1,2.56,8.83c.57,3,1,6.05,1.37,9.1.74,6.09,1.15,12.2,1.52,18.32s.51,12.24.58,18.37S1130.82,417.3,1130.62,423.42Z" transform="translate(-1010.54 -339.74)"/><path class="cls-4" d="M1103.46,423.42l-.63-18.35c-.24-6.12-.45-12.23-.82-18.34s-.71-12.21-1.28-18.29c-.29-3-.63-6.08-1.1-9.1a44.84,44.84,0,0,0-2.07-8.91,41.56,41.56,0,0,1,2.56,8.83c.57,3,1,6.05,1.37,9.1.74,6.09,1.15,12.2,1.52,18.32s.51,12.24.58,18.37S1103.66,417.3,1103.46,423.42Z" transform="translate(-1010.54 -339.74)"/><path class="cls-4" d="M1089.88,423.42l-.63-18.35c-.24-6.12-.45-12.23-.82-18.34s-.71-12.21-1.28-18.29c-.29-3-.63-6.08-1.1-9.1a44.84,44.84,0,0,0-2.07-8.91,41.56,41.56,0,0,1,2.56,8.83c.57,3,1,6.05,1.37,9.1.74,6.09,1.15,12.2,1.52,18.32s.51,12.24.58,18.37S1090.08,417.3,1089.88,423.42Z" transform="translate(-1010.54 -339.74)"/><path class="cls-4" d="M1080.82,423.42l-.63-18.35c-.23-6.12-.44-12.23-.81-18.34s-.71-12.21-1.28-18.29c-.29-3-.63-6.08-1.1-9.1a46.28,46.28,0,0,0-2.07-8.91,41.54,41.54,0,0,1,2.55,8.83c.57,3,1,6.05,1.38,9.1.73,6.09,1.15,12.2,1.52,18.32s.51,12.24.58,18.37S1081,417.3,1080.82,423.42Z" transform="translate(-1010.54 -339.74)"/><path class="cls-4" d="M1201.3,418.2a101.94,101.94,0,0,1,2.66-12.7,118.74,118.74,0,0,1,4.13-12.32,88.46,88.46,0,0,1,5.83-11.64,51.23,51.23,0,0,1,8.13-10.11l-2.07,2.48a80.06,80.06,0,0,0-3.73,5.27c-.55.92-1.14,1.82-1.67,2.75a102.29,102.29,0,0,0-5.56,11.62c-1.66,4-3,8.06-4.32,12.16-.66,2.06-1.25,4.13-1.8,6.21S1201.8,416.1,1201.3,418.2Z" transform="translate(-1010.54 -339.74)"/><path class="cls-4" d="M1209.6,415.94a83.42,83.42,0,0,1,6.1-6.51,87.46,87.46,0,0,1,6.69-5.91,60.88,60.88,0,0,1,7.33-5.12,31.5,31.5,0,0,1,8.17-3.59c-.68.31-1.35.61-2,.9s-1.31.7-2,1-1.28.73-1.91,1.11-1.26.76-1.86,1.19c-2.46,1.62-4.82,3.4-7.12,5.25s-4.56,3.76-6.79,5.69c-1.13,1-2.23,2-3.32,3S1210.7,414.94,1209.6,415.94Z" transform="translate(-1010.54 -339.74)"/><path class="cls-4" d="M1074.93,418.2c-.49-2.1-1-4.2-1.59-6.28s-1.15-4.15-1.81-6.21c-1.29-4.1-2.66-8.19-4.32-12.16a102.29,102.29,0,0,0-5.56-11.62c-.53-.93-1.12-1.83-1.67-2.75a28.44,28.44,0,0,0-1.81-2.67,30.46,30.46,0,0,0-1.91-2.6c-.7-.82-1.39-1.65-2.08-2.48a51.23,51.23,0,0,1,8.13,10.11,88.46,88.46,0,0,1,5.83,11.64,118.74,118.74,0,0,1,4.13,12.32A98.45,98.45,0,0,1,1074.93,418.2Z" transform="translate(-1010.54 -339.74)"/><path class="cls-4" d="M1066.63,415.94c-1.1-1-2.18-2-3.3-3s-2.19-2-3.31-3c-2.24-1.93-4.48-3.87-6.8-5.69s-4.66-3.63-7.12-5.25c-.6-.43-1.22-.82-1.86-1.19s-1.25-.79-1.91-1.11-1.29-.72-2-1-1.35-.59-2-.9a31.5,31.5,0,0,1,8.17,3.59,60.1,60.1,0,0,1,7.33,5.12,87.46,87.46,0,0,1,6.69,5.91A81.55,81.55,0,0,1,1066.63,415.94Z" transform="translate(-1010.54 -339.74)"/></svg>