<svg id="Calque_1" data-name="Calque 1" xmlns="http://www.w3.org/2000/svg" xmlns:xlink="http://www.w3.org/1999/xlink" viewBox="0 0 2603 287.07"><defs><style>.cls-1{fill:none;}.cls-2{clip-path:url(#clip-path);}.cls-3{fill:#b799ff;}.cls-4,.cls-5,.cls-6,.cls-7,.cls-9{fill:#ff9;}.cls-13,.cls-4,.cls-8{opacity:0.2;}.cls-5{opacity:0.4;}.cls-6{opacity:0.6;}.cls-7{opacity:0.8;}.cls-10{fill:#d4c2ff;}.cls-11{fill:#e2d6ff;}.cls-12{fill:#3a3944;}.cls-13{fill:#fafdfb;}.cls-14{fill:#99ddfc;}.cls-15{fill:#f6f3ff;}</style><clipPath id="clip-path" transform="translate(448 32)"><rect class="cls-1" width="1920" height="191"/></clipPath></defs><title>Banière</title><g class="cls-2"><rect class="cls-3" x="448" y="32" width="1920" height="191"/><circle class="cls-4" cx="1480.34" cy="154.61" r="132.45"/><circle class="cls-5" cx="1480.34" cy="154.61" r="115.9"/><circle class="cls-6" cx="1480.34" cy="154.61" r="99.34"/><circle class="cls-7" cx="1480.34" cy="154.61" r="82.78"/><g class="cls-8"><path class="cls-9" d="M1753-30.64h350.58c-2.77.88-4.44,1.87-8.5,2.64-23.86,4.51-48.55,9-72.43,13.46-25.44,4.8-50.21,9.67-75.42,14.49-12,2.29-24.33,4.54-36.37,6.82s-24.07,4.56-35.82,6.87c-11.39,2.24-24.32,4.32-35.49,6.58-17.41,3.53-37.12,6.85-54.41,10.38-9.78,2-23.17,3.58-31.72,5.77-11.35,2.9-28.4,5.4-41.86,8.17-13.25,2.73-29.1,5.19-42.6,7.9-27.41,5.5-56.93,10.82-85.53,16.22-42,7.93-83.83,15.87-126.06,23.78-14.71,2.75-30.85,5.37-45.54,8.13-9.55,1.79-17,3.78-26.54,5.58-49.81,9.45-100,18.88-150,28.31-14.87,2.8-29.86,5.6-44.67,8.4-15,2.85-29.85,5.72-44.84,8.57-17.34,3.3-34.52,6.61-52.25,9.87-11.1,2-23.1,4-34.7,6h-2.33c42.84-12.19,85.75-24.38,128.36-36.58,2.05-.59,1.55-1.33,2.24-2l5.9.91c1-.63,1.07-1.31,3-1.87,31.39-9,63-17.94,94.59-26.91,8.37-2.38,16.5-4.78,24.91-7.16,38-10.72,76-21.44,113.93-32.18q87.45-24.78,174.67-49.57,62.89-17.87,125.72-35.72C1737.85-26.06,1745.31-28.36,1753-30.64Z" transform="translate(448 32)"/><path class="cls-9" d="M317.94-30.64c11.59,3.42,22.87,6.86,34.82,10.26Q419.23-1.46,486.05,17.43c13.34,3.78,26.76,7.56,40.08,11.34,40.49,11.49,81.36,23,121.27,34.49,22.06,6.37,45.18,12.67,67.42,19q57.52,16.45,115.4,32.88c30.9,8.78,62,17.54,93,26.31q41.31,11.69,82.49,23.38a17.55,17.55,0,0,1,3.13,1.36l-3.08.22c-2.55-.4-5.35-.77-7.6-1.2Q943.86,155,889.64,144.76c-41.53-7.84-83.14-15.68-124.54-23.54-34-6.46-67.61-13-101.75-19.41C626.73,94.9,589.47,88,552.87,81.12c-44.63-8.44-88.69-16.92-133.3-25.36C381,48.46,341.92,41.2,303.1,33.92c-8.52-1.59-17.36-3.17-25.15-4.82-3.47-.74-4.71-1.66-8.14-2.3-3.12-.33-7.06-.57-9.25-1Q215,17.31,169.88,8.76c-38.74-7.32-77.33-14.67-116.07-22C25.44-18.6-3.09-23.95-31.48-29.31c-2.22-.42-3.9-.89-5.83-1.33Z" transform="translate(448 32)"/><path class="cls-9" d="M-269-32c6.74.8,194.63,30.07,200.4,31Q13.71,11.91,95.52,24.9c61.58,9.76,122.93,19.53,184.66,29.27,60.23,9.5,120.82,19,181.27,28.43,9.28,1.46,18.92,2.88,27.71,4.38a31.08,31.08,0,0,1,6.31,1.94,22.39,22.39,0,0,0,6,1.24l1.76-1C521,92,537.92,94.71,554.91,97.38q80.34,12.66,160.72,25.3l221.89,35c16.76,2.65,33.64,5.27,50.25,7.93,3.17.51,5.34,1.13,8,1.69h-9.35c-3.06-.45-5.74-1-9.23-1.36-32.1-3.58-64.36-7.15-96.55-10.72L677.5,132.65l-60.71-6.75Q518.57,115,420.48,104c-5.12-.57-8.72-1.38-13.4-2.14-4.17-.27-10.38-.48-14.84-1Q300,90.74,208.18,80.51c-41.46-4.6-83.06-9.17-124.43-13.78C41.19,62-1,57.2-43.71,52.48-58.21,50.88-433,18.32-448,16.81V-32Z" transform="translate(448 32)"/><path class="cls-9" d="M1306.59-30.64h278.13c1,.58,3.34,1.19,2.82,1.75s-4.31,1.08-5.83,1.65C1572-23.55,1563-19.82,1553-16.15c-55.79,20.32-111.88,40.63-167.77,60.94-41.51,15.09-82.85,30.19-124.32,45.28-22.06,8-44.24,16.05-66.33,24.08Q1137.23,135,1080,155.8c-10.46,3.82-20.37,7.66-30.53,11.49h-4.67c7-5.27,14.12-10.54,21-15.81,14.6-11.15,28.91-22.31,43.67-33.46,9.47-7.15,19.77-14.27,29.3-21.42,18.51-13.88,36.69-27.77,55.09-41.66q20.64-15.58,41.48-31.16C1255.09,9,1275-5.71,1294.55-20.45,1299-23.84,1302.6-27.25,1306.59-30.64Z" transform="translate(448 32)"/><path class="cls-9" d="M1021.45,167.29c-12.88-4.77-25.64-9.55-38.64-14.32-30.79-11.29-61.54-22.58-92.57-33.86-25.69-9.34-51.88-18.65-77.63-28-34.55-12.53-68.88-25.07-103.31-37.6L666.2,37.84l-46.67-17C589.45,10,559.29-.94,529.53-11.87c-1.33-.49,1.24-1.14,1.47-1.72.17-.42.63-1.08-1-1.22-18.27-1.51-19.64-4.21-26.36-6.5-9-3.07-16.36-6.22-24.42-9.33H762c4.31,3,8.87,6.06,12.89,9.1,20.92,15.87,41.54,31.74,62.58,47.61,14,10.57,28.65,21.12,42.82,31.68,6.05,4.51,11.44,9,17.49,13.55,15.15,11.3,30.57,22.6,45.76,33.9,6.34,4.71,12.31,9.43,18.57,14.15s11.94,9.44,19.24,14.13,10.41,9.29,17.75,13.9c10.49,6.6,18.14,13.27,27,19.91Z" transform="translate(448 32)"/><path class="cls-9" d="M1082.22,167.29h-9.35l52.8-8.4,3.87.63c4.61-1.17,7.83-2.34,13.26-3.29,11.52-2,24.13-3.91,36.4-5.84q120.19-18.91,240.43-37.83,102.67-16.15,205.22-32.34c20.47-3.23,41.21-6.43,61.64-9.66Q1764.34,58.25,1842,45.91L1971.6,25.45l122-19.26c15-2.37,29.84-4.77,45.18-7.12,4.67-.71,10.8-1.26,16.26-1.88V48.53l-12.76.15a25.62,25.62,0,0,1-4.76,1.25c-6.62.84-13.74,1.62-20.78,2.4q-86.79,9.66-173.58,19.3c-28.68,3.2-58,6.3-86.49,9.53-71.9,8.13-144.73,16.12-217.2,24.16-6.46.72-12.23,1.7-20.45,1.12-2.36.69-3.14,1.4-6.25,1.75q-70.17,7.94-140.92,15.76c-47.74,5.3-95.82,10.54-143.56,15.83q-93,10.32-185.8,20.69C1122.25,162.72,1102.29,165,1082.22,167.29Z" transform="translate(448 32)"/><path class="cls-9" d="M1037.81,167.29h-4.68c-1.31-2.15-2.72-4.3-3.9-6.45-2.41-4.41-4.3-8.83-7.14-13.23-2.63-4.09-6.49-8.17-9.33-12.26-4.27-6.15-8.06-12.3-12.16-18.45-6.07-9.12-12.29-18.24-18.32-27.36-4.23-6.4-8.1-12.8-12.41-19.19-4.94-7.33-10.42-14.65-15.25-22-6-9.07-11.35-18.15-17.32-27.22-6.53-9.94-13.45-19.88-20.18-29.82q-7.46-11-14.87-22h266.44c-4.85,6.28-10.19,12.57-14.41,18.86-4.71,7-8.15,14.06-12.63,21.08-4.87,7.63-10.4,15.26-15.46,22.9-4.32,6.49-8.28,13-12.58,19.5-5.87,8.86-12,17.72-17.85,26.59-4.34,6.56-8.38,13.12-12.69,19.68s-8.84,13.22-13.3,19.82c-3.58,5.31-7,10.62-10.85,15.93-2.42,3.32-6.09,6.62-8.22,9.94-3.08,4.8-5.27,9.61-7.86,14.41C1041.19,161.14,1039.49,164.22,1037.81,167.29Z" transform="translate(448 32)"/><path class="cls-9" d="M-448,81.88c0-11.44,1.36-31.94,1.36-43.38,10.6,1,379.17,32.35,389.7,33.32,23.27,2.15,46.31,4.35,69.8,6.45,5.79.52,5.3,1.71,14.46,1.9,6.84.15,13.51.72,19.47,1.26,20.1,1.8,39.84,3.68,59.73,5.52l191.31,17.72c80.36,7.44,160.91,14.85,240.91,22.35,13.87,1.31,31.06,2.17,39.26,4.41.71.19,4.2.19,6.31.31,5,.28,10.36.47,14.68.87q109.53,10.13,218.81,20.28,77.36,7.19,154.57,14.4H949c-27.89-1.8-55.61-3.65-83.72-5.39-55.95-3.47-112.15-6.86-168.18-10.3-26.48-1.62-52.81-3.29-79.24-4.92L398.16,133.1,250,124q-132.7-8.2-265.43-16.4C-39.63,106.08-423.54,83.31-448,81.88Z" transform="translate(448 32)"/><path class="cls-9" d="M2155,69.25v34.33c-5.13.22-10.49.38-15.35.68q-143.85,8.88-287.6,17.8-150.79,9.3-301.81,18.55c-5.24.32-11.36.39-17.07.58-6.51.72-13.65,1.38-21.4,1.86-36.64,2.27-73.5,4.48-110.19,6.75q-101.61,6.25-203.07,12.57c-25.67,1.6-51,3.28-76.56,4.92h-16.36c5.6-.8,10.35-1.76,16.94-2.38,44.24-4.16,88.89-8.24,133.38-12.35,31.23-2.88,62.39-5.78,93.66-8.66,57.79-5.32,115.8-10.59,173.42-15.94,85.33-7.92,170.28-15.91,255.61-23.83C1844.18,98,1910.2,92,1975.84,86,2035.69,80.42,2095.29,74.82,2155,69.25Z" transform="translate(448 32)"/><path class="cls-9" d="M911.6,167.29H804.09c-12.79-.4-25.46-.88-38.37-1.18Q631.92,163,498.05,160q-132-3.06-264-6.17-59.74-1.4-119.54-2.74c-67.76-1.59-494.77.22-562.52-1.37,0-9.18,1.36-34.21,1.36-43.39,13.09.65,384.06,13.76,397.18,14.4L143.38,130Q277,136.47,410.77,142.89q96,4.62,192,9.2,142.37,6.85,284.62,13.76C895.67,166.25,903.54,166.81,911.6,167.29Z" transform="translate(448 32)"/><path class="cls-9" d="M2155,119.66v26.91c-10.4.14-20.92.18-31.18.42q-106.9,2.49-213.73,5.06-131.61,3.06-263.31,6.07-161,3.75-321.83,7.57c-20.22.48-40.29,1.06-60.43,1.6H1157c3.48-.22,6.86-.48,10.47-.66l311.58-15q149.07-7.17,298.26-14.32c86-4.1,172.23-8.13,258.21-12.24,33.63-1.61,66.78-3.4,100.34-5C2141.75,119.7,2148.6,119.76,2155,119.66Z" transform="translate(448 32)"/><path class="cls-9" d="M-88.73,159.87l191.49,2.27,183.3,2.16,157.52,1.84q27.85.31,55.73.64c2.75,0,5.3.34,7.95.51h-596Z" transform="translate(448 32)"/><path class="cls-9" d="M1561.35,167.29c12-.27,23.85-.66,35.9-.8q151.66-1.78,303.37-3.5,116.81-1.35,233.59-2.74c7-.09,13.86-.25,20.79-.38v7.42Z" transform="translate(448 32)"/></g><path class="cls-10" d="M1901.74,55.5c.48,3.22-.09,4.46-3.64,4.55-13.45.36-20.7,7.32-22.09,21-.22,2.21-.57,2.68-3,2.08-11.37-2.82-21-3.11-30,5.89-11,11-17.79-15.65-26.34-18-21.66-6-14.66,9-48.56-4-14.75-5.64-24.71,4.29-31.34,18.63-1,2.17-1.22,3.12-4.35,1.91-16.49-6.38-31.88-5.26-44.81,8.33-1.12,1.18-2,2.31-4.2,1.22a10.84,10.84,0,0,0-12.55,1.41c-3.2,2.71-6.39,2.49-10.79,2.91-27.06,2.58-22,25.11-30.2,20.23C1617,114,1608,109,1591.73,116c-2.89,1.24-3.88,2-6.43.29-12.35-8-24.82-8.5-37.15.21-1.24.87-2.39,2-4,1-15.13-6.55-24.07,2.71-25.94,5.3-1.55,2.14-2.79,3.38-5.62,2.26-6.74-2.66-13.53-2.86-20.29.17-2.59,1.16-2.12-1.08-2.32-2.41-1.31-8.87-5.6-15.5-14.22-18.79a18.5,18.5,0,0,0-15.86,1.19c-2.31,1.23-3.42,1.3-5.15-.88-4.91-6.15-11-10.56-19.16-11.36-2.35-.23-2.38-1.56-2.61-3.35-.85-6.36-4.63-10.29-11-11.68h0c-6.08,0-8,7-11,4s-9-5-15,0-8,5-15-1c-5.37-4.6-17-3-17-3-6.33,1.39-10.11,5.32-11,11.68-.23,1.79-.26,3.12-2.61,3.35-8.11.8-14.25,5.21-19.15,11.36-1.74,2.18-2.85,2.11-5.16.88a18.5,18.5,0,0,0-15.86-1.19c-8.62,3.29-12.91,9.92-14.22,18.79-.19,1.33.27,3.57-2.32,2.41-6.76-3-13.55-2.83-20.28-.17-2.84,1.12-4.08-.12-5.63-2.26-1.87-2.59-10.81-11.85-25.93-5.3-1.64,1-2.79-.18-4-1-12.33-8.71-24.8-8.24-37.15-.21-2.55,1.66-4,1.7-6.42-.29-14.23-11.65-33.38-5.1-38.14,8.65-2.14,6.18-5.22,7.38-11.2,7.77-4.41.29-7.59-.2-10.79-2.91a10.84,10.84,0,0,0-12.55-1.41c-2.17,1.09-3.08,0-4.2-1.22-12.93-13.59-28.32-14.71-44.81-8.33-3.13,1.21-3.35.26-4.35-1.91-6.63-14.34-15.49-3.76-31.24-2.64-9.65.68-5.25-2.59-14.66-2a16.07,16.07,0,0,0-9.48,4.12c-5.58-8.45-12.48-6.11-24.86-6.11-14,0-10-7-14.13-13.65C965.88,83.48,939,82,929,89c-12.74,8.92-17.79-15.65-26.34-18C881,65,888,80,854.1,67c-14.75-5.64-24.71,4.29-31.34,18.63-1,2.17-1.22,3.12-4.35,1.91-16.49-6.38-31.88-5.26-44.81,8.33-1.12,1.18-2,2.31-4.2,1.22a10.84,10.84,0,0,0-12.55,1.41c-3.2,2.71-6.39,2.49-10.79,2.91-27.06,2.58-22,25.11-30.2,20.23C703,114,694,109,677.73,116c-2.89,1.24-3.88,2-6.43.29-12.35-8-24.82-8.5-37.15.21-1.24.87-2.39,2-4,1-15.13-6.55-24.07,2.71-25.94,5.3-1.55,2.14-2.79,3.38-5.62,2.26-6.74-2.66-13.53-2.86-20.29.17-2.59,1.16-2.12-1.08-2.32-2.41-1.31-8.87-5.6-15.5-14.22-18.79a18.5,18.5,0,0,0-15.86,1.19c-2.31,1.23-3.42,1.3-5.15-.88-4.91-6.15-11.05-10.56-19.16-11.36-2.35-.23-2.38-1.56-2.61-3.35-.85-6.36-4.63-10.29-11-11.68h0c-6.08,0-8,7-11,4s-9-5-15,0-8,5-15-1c-5.37-4.6-17-3-17-3-6.33,1.39-10.11,5.32-11,11.68-.23,1.79-.26,3.12-2.61,3.35-8.11.8-14.25,5.21-19.15,11.36-1.74,2.18-2.85,2.11-5.16.88a18.5,18.5,0,0,0-15.86-1.19c-8.62,3.29-12.91,9.92-14.22,18.79-.19,1.33.27,3.57-2.32,2.41-6.76-3-13.55-2.83-20.28-.17-2.84,1.12-4.08-.12-5.63-2.26-1.87-2.59-10.81-11.85-25.93-5.3-1.64,1-2.79-.18-4-1-12.33-8.71-24.8-8.24-37.15-.21-2.55,1.66-4,1.7-6.42-.29-14.23-11.65-33.38-5.1-38.14,8.65-2.14,6.18-5.22,7.38-11.2,7.77-4.41.29-7.59-.2-10.79-2.91a10.84,10.84,0,0,0-12.55-1.41c-2.17,1.09-3.08,0-4.2-1.22-12.93-13.59-28.32-14.71-44.81-8.33-3.13,1.21-3.35.26-4.35-1.91C147.61,102.3,138.65,96.9,122.9,98c-9.65.69-17.29,5.57-21.56,14C97.41,119.73,88,141,77,130c-9-9-18.64-8.71-30-5.89-2.43.6-2.78.13-3-2.08-1.39-13.66-8.64-20.62-22.09-21-3.55-.09-4.12-1.33-3.63-4.55C21,78.6,15.34,64.19,0,54V82c8.89,2.84,13.29,10.27,11.8,20.83-.41,2.88,0,3.86,2.91,4.18,12.19,1.33,19.72,7.59,22.1,19.24,1.06,5.17,3.53,7.39,8,10.11,6.23,3.75,13.41,5.74,19,10.47,1.88,1.59,2.9.7,4.22-.47,10.61-9.4,26-9.4,37.25-1.44,3.28,2.3,4.75,2.23,7.23-1.49,12.15-18.25,36.34-20.46,52.25-5.14,4.84,4.66,5.75,4.52,11.14.32,9.63-7.5,25.54-5.2,32.26,5.56,1.55,2.5,3.27,3.43,6.2,2.17a32,32,0,0,1,22.39-1c5.05,1.49,13-2.44,15.64-6.78,6.8-11.15,17.58-14.27,29.33-7.16,2.61,1.58,4.11,1.7,6.55-.1,14-10.36,35,.52,48.44,11.95l17,.13c9.16-6.89,18.92-8.3,29.5-4.28,2.19.83,3.41.87,5-1.25,7.38-10,16.64-15.93,29.74-13,3.33.75,4.3-2.06,5.5-4.06a37.51,37.51,0,0,1,22.21-17.16,21.48,21.48,0,0,1,3.5-.58c2.54,8.62,9,8.33,10.88,10.89,3,4,49-6,49-6s.06-2,.13-4.85a18.53,18.53,0,0,1,3.25.54,37.51,37.51,0,0,1,22.21,17.16c1.2,2,2.17,4.81,5.5,4.06,13.1-3,22.36,3,29.74,13,1.56,2.12,2.78,2.08,5,1.25,10.58-4,20.34-2.61,29.5,4.28l17-.13c13.4-11.43,34.45-22.31,48.44-11.95,2.44,1.8,3.94,1.68,6.55.1,11.75-7.11,22.53-4,29.33,7.16,2.65,4.34,10.59,8.27,15.64,6.78,7.6-2.26,34.09-33.16,41.39-30,2.94,1.26,4.65.33,6.2-2.17,6.72-10.76,22.63-13.06,32.26-5.56,5.39,4.2,6.3,4.34,11.14-.32,15.91-15.32,69.1-23.11,81.26-4.86,2.47,3.72,3.94,3.79,7.22,1.49,11.29-8,26.64-8,37.25,1.44,1.32,1.17,2.34,2.06,4.22.47,4.13-3.5,5.77,7.45,8.87,11.85a17,17,0,0,0-.22,8.57c1.06,5.17,3.53,7.39,8,10.11,6.23,3.75,13.41,5.74,19,10.47,1.88,1.59,2.9.7,4.22-.47a28.42,28.42,0,0,1,10.7-6L1004,146l2.69-6.36a31.52,31.52,0,0,1,12.62,5.28c3.28,2.3,4.75,2.23,7.23-1.49,12.15-18.25,36.34-20.46,52.25-5.14,4.84,4.66,5.75,4.52,11.14.32,9.63-7.5,25.54-5.2,32.26,5.56,1.55,2.5,3.27,3.43,6.2,2.17a32,32,0,0,1,22.39-1c5,1.49,13-2.44,15.64-6.78,6.8-11.15,17.58-14.27,29.33-7.16,2.61,1.58,4.11,1.7,6.55-.1,14-10.36,35,.52,48.44,11.95l17,.13c9.16-6.89,18.92-8.3,29.5-4.28,2.19.83,3.41.87,5-1.25,7.38-10,16.64-15.93,29.74-13,3.33.75,4.3-2.06,5.5-4.06a37.51,37.51,0,0,1,22.21-17.16,21.48,21.48,0,0,1,3.5-.58c2.54,8.62,9,8.33,10.88,10.89,3,4,49-6,49-6s.06-2,.13-4.85a18.53,18.53,0,0,1,3.25.54,37.51,37.51,0,0,1,22.21,17.16c1.2,2,2.17,4.81,5.5,4.06,13.1-3,22.36,3,29.74,13,1.56,2.12,2.78,2.08,5,1.25,10.58-4,20.34-2.61,29.5,4.28l17-.13c13.4-11.43,34.45-22.31,48.44-11.95,2.44,1.8,3.94,1.68,6.55.1,11.75-7.11,22.53-4,29.33,7.16,2.65,4.34,10.59,8.27,15.64,6.78,7.6-2.26,34.09-33.16,41.39-30,2.94,1.26,4.65.33,6.2-2.17,6.72-10.76,22.63-13.06,32.26-5.56,5.39,4.2,6.3,4.34,11.14-.32,15.91-15.32,69.1-23.11,81.26-4.86,2.47,3.72,3.94,3.79,7.22,1.49,11.29-8,26.64-8,37.25,1.44,1.32,1.17,2.34,2.06,4.22.47,5.58-4.73,12.76-6.72,19-10.47,4.51-2.72,7-4.94,8-10.11,2.38-11.65,9.91-17.91,22.1-19.24,2.93-.32,3.32-1.3,2.91-4.18-1.49-10.56,2.91-18,11.8-20.83V13C1904.66,23.19,1899,37.6,1901.74,55.5ZM958.15,123.07l2.3,1.15C958.92,124.53,958.4,124.23,958.15,123.07Z" transform="translate(448 32)"/><path class="cls-11" d="M1908.2,61.83c.41,2.88,0,3.86-2.91,4.18-12.19,1.33-19.72,7.59-22.1,19.24-1,5.17-3.53,7.39-8,10.11-6.23,3.75-13.41,5.74-19,10.47-1.88,1.59-2.9.7-4.22-.47-10.61-9.4-26-9.4-37.25-1.44-3.28,2.3-4.75,2.23-7.22-1.49-12.16-18.25-65.35-10.46-81.26,4.86-4.84,4.66-5.75,4.52-11.14.32-9.63-7.5-25.54-5.2-32.26,5.56-1.55,2.5-3.07,2.8-6.2,2.17-16.61-3.34-16.07,25.41-41.39,15-8.22-3.37-14,4.56-16.64.22-6.8-11.15-16.58-6.27-28.33.84-2.61,1.58-4.11,1.7-6.55-.1-14-10.36-34-9.48-47.44,1.95-4.26,3.72-3.55,6.31-15.26,8.72-9,1-10-11-32.2-2.87-2.19.83-3.41.87-5-1.25-7.38-10-16.64-15.93-29.74-13-3.33.75-4.3-2.06-5.5-4.06a37.51,37.51,0,0,0-22.21-17.16A32,32,0,0,0,1422,103h0c-23-2-30.67,12.85-41,4-7-6-17-4-17-4a32,32,0,0,0-4.38.69,37.51,37.51,0,0,0-22.21,17.16c-1.2,2-2.17,4.81-5.5,4.06-13.1-3-22.36,3-29.74,13-1.56,2.12-2.78,2.08-5,1.25C1275,131,1274,143,1265,142c-11.7-2.41-11-5-15.26-8.72-13.4-11.43-33.45-12.31-47.44-1.95-2.44,1.8-3.94,1.68-6.55.1-11.75-7.11-22.53-4-29.33,7.16-2.64,4.34-10.59,8.27-15.64,6.78a32,32,0,0,0-22.39,1c-2.93,1.26-4.65.33-6.2-2.17-6.72-10.76-22.63-13.06-32.26-5.56-5.39,4.2-6.3,4.34-11.14-.32-15.91-15.32-40.1-13.11-52.25,5.14-2.48,3.72-3.95,3.79-7.23,1.49C1008,137,1008.61,117.6,998,127c-9,2-2-9-12-9-9,0-15.73-15-23-15a8.32,8.32,0,0,0-5.09,1.63c-5.39.39-11.37-2.51-15.75,1.2-1.88,1.59-2.9.7-4.22-.47-10.61-9.4-26-9.4-37.25-1.44-3.28,2.3-4.75,2.23-7.22-1.49-12.16-18.25-65.35-10.46-81.26,4.86-4.84,4.66-5.75,4.52-11.14.32-9.63-7.5-25.54-5.2-32.26,5.56-1.55,2.5-3.07,2.8-6.2,2.17-16.61-3.34-16.07,25.41-41.39,15-8.22-3.37-14,4.56-16.64.22-6.8-11.15-16.58-6.27-28.33.84-2.61,1.58-4.11,1.7-6.55-.1-14-10.36-34-9.48-47.44,1.95C618,137,618.71,139.59,607,142c-9,1-10-11-32.2-2.87-2.19.83-3.41.87-5-1.25-7.38-10-16.64-15.93-29.74-13-3.33.75-4.3-2.06-5.5-4.06a37.51,37.51,0,0,0-22.21-17.16A32,32,0,0,0,508,103h0c-23-2-30.67,12.85-41,4-7-6-17-4-17-4a32,32,0,0,0-4.38.69,37.51,37.51,0,0,0-22.21,17.16c-1.2,2-2.17,4.81-5.5,4.06-13.1-3-22.36,3-29.74,13-1.56,2.12-2.78,2.08-5,1.25C361,131,360,143,351,142c-11.7-2.41-11-5-15.26-8.72-13.4-11.43-33.45-12.31-47.44-1.95-2.44,1.8-3.94,1.68-6.55.1-11.75-7.11-22.53-4-29.33,7.16-2.64,4.34-10.59,8.27-15.64,6.78a32,32,0,0,0-22.39,1c-2.93,1.26-4.65.33-6.2-2.17-6.72-10.76-22.63-13.06-32.26-5.56-5.39,4.2-6.3,4.34-11.14-.32-15.91-15.32-40.1-13.11-52.25,5.14-2.48,3.72-4,3.79-7.23,1.49-11.29-8-26.64-8-37.25,1.44-1.32,1.17-2.34,2.06-4.22.47-5.58-4.73-12.76-6.72-19-10.47-4.51-2.72-7-4.94-8-10.11C34.43,114.6,26.9,108.34,14.71,107c-2.93-.32-3.32-1.3-2.91-4.18C13.29,92.27,8.89,84.84,0,82v30c9.54,1.66,14.46,7.21,15,16.89.1,1.72-.52,3.62,2.3,4.13,9.54,1.73,16.86,7,22.6,14.68,1.36,1.82,3.07,5,4.46,4.9,5.29-.32,9.8,2.92,15,2.47,7.81-.68,14.67,2.28,20.29,7.38,3.19,2.9,4.94,2.55,7.71-.28,6.45-6.57,14.51-9.35,23.58-7.85,3.08.51,4-.75,4.67-2.89,2-6.7,7.4-9.05,13.29-10.35,7.52-1.65,13.58,1.91,17.53,7.74,2.22,3.26,3.62,3.39,6.69,2.14,12-4.87,23.52-5.3,33.67,4.41,2.76,2.63,6,3.57,9.88,3.79,5.64.31,11.15,2.26,14.18,7.49,3.32,5.71,6.36,10.57,14.4,9.88,3.21-.28,4.93-.4,5.69-3.58,4.19-17.65,25.65-28.49,43.29-22.38a6.12,6.12,0,0,0,6.42-1.16A38.18,38.18,0,0,1,294.1,142c11.63-3.31,20.47,1.91,28.28,9.84,0,0,7.62,11.12,32.62,11.12,6.46,0,9.56.29,15.58-6.45,6.5-7.27,16.48-8.49,26.24-5.12,2.57.89,4.41.52,6.6-1.59,2.4-2.32,4.18-5.15,6.63-7.31,10.74-9.47,22.86-15.51,37.29-15.58l-.34,3,64,2,2.48-5c13.2.79,24.44,17.64,34.47,26.49,2.45,2.16,4.23,0,6.63,2.31,2.19,2.11,4-3.52,6.61-4.41,9.75-3.37,19.73-2.15,26.23,5.12,6,6.74,9.12,6.45,15.58,6.45,25,0,32.62-11.12,32.62-11.12,7.81-7.93,16.65-13.15,28.28-9.84a38.18,38.18,0,0,1,13.38,7.37,6.12,6.12,0,0,0,6.42,1.16C701.34,144.46,724,154,746,142c.76,3.18,2.48,3.3,5.69,3.58,8,.69,11.08-4.17,14.4-9.88,3-5.23,8.54-7.18,14.18-7.49,3.92-.22,7.12-1.16,9.88-3.79,10.15-9.71,21.66-9.28,33.67-4.41,3.07,1.25,4.47,1.12,6.69-2.14,4-5.83,10-9.39,17.53-7.74,5.89,1.3,8.33,3.65,10.29,10.35.62,2.14,33.59-6.6,36.67-7.11,7-1.17,13.47,4.46,19,10.12V150c9.54,1.66,14.46,7.21,15,16.89.1,1.72-.52,3.62,2.3,4.13,9.54,1.73,16.86-31,22.6-23.32,1.36,1.82,3.07,5,4.46,4.9,5.29-.32,9.8,2.92,15,2.47,7.81-.68,14.67,2.28,20.29,7.38,3.19,2.9,4.94,2.55,7.71-.28,6.45-6.57,14.51-9.35,23.58-7.85,3.08.51,4-.75,4.67-2.89,2-6.7,7.4-9.05,13.29-10.35,7.52-1.65,13.58,1.91,17.53,7.74,2.22,3.26,3.62,3.39,6.69,2.14,12-4.87,23.52-5.3,33.67,4.41,2.76,2.63,6,3.57,9.88,3.79,5.64.31,11.15,2.26,14.18,7.49,3.32,5.71,6.36,10.57,14.4,9.88,3.21-.28,4.93-.4,5.69-3.58,4.19-17.65,25.65-28.49,43.29-22.38a6.12,6.12,0,0,0,6.42-1.16A38.18,38.18,0,0,1,1208.1,142c11.63-3.31,20.47,1.91,28.28,9.84,0,0,7.62,11.12,32.62,11.12,6.46,0,9.56.29,15.58-6.45,6.5-7.27,16.48-8.49,26.24-5.12,2.57.89,4.41.52,6.6-1.59,2.4-2.32,4.18-5.15,6.63-7.31,10.74-9.47,22.86-15.51,37.29-15.58l-.34,3,64,2,2.48-5c13.2.79,24.44,6.64,34.47,15.49,2.45,2.16,4.23,5,6.63,7.31,2.19,2.11,4,2.48,6.61,1.59,9.75-3.37,19.73-2.15,26.23,5.12,6,6.74,9.12,6.45,15.58,6.45,25,0,32.62-11.12,32.62-11.12,7.81-7.93,16.65-13.15,28.28-9.84a38.18,38.18,0,0,1,13.38,7.37,6.12,6.12,0,0,0,6.42,1.16c17.64-6.11,40.3,3.43,62.29-8.62.76,3.18,2.48,3.3,5.69,3.58,8,.69,11.08-4.17,14.4-9.88,3-5.23,8.54-7.18,14.18-7.49,3.92-.22,7.12-1.16,9.88-3.79,10.15-9.71,21.66-9.28,33.67-4.41,3.07,1.25,4.47,1.12,6.69-2.14,4-5.83,10-9.39,17.53-7.74,5.89,1.3,11.33,3.65,13.29,10.35.62,2.14,30.59-6.6,33.67-7.11,9.08-1.5,17.13,1.28,23.58,7.85,2.77,2.83,4.52,3.18,7.71.28,5.62-5.1,12.49-8.06,20.29-7.38,5.25.45,9.76-2.79,15-2.47,1.39.08,3.1-3.08,4.46-4.9,5.74-7.69,13.06-13,22.6-14.68,2.82-.51,2.2-2.41,2.3-4.13.56-9.68,5.48-15.23,15-16.89V41C1911.11,43.84,1906.71,51.27,1908.2,61.83Z" transform="translate(448 32)"/><polygon class="cls-12" points="1354.51 149.87 1335 136 1305 141 1288 109 1253 132 1196 40 1169 81 1129 50 1107 57 1047.55 139.67 1036 128 1007.01 155.97 956 74 932.66 65.26 915 47 886 94 844 110 828 93 802.33 102.33 783 78 713.67 161.33 705.67 186.13 679.67 161.67 661 176 622 164 567.67 193.44 544.67 177.67 514 197 514 217 693.67 223.33 1130 223 1354.51 222.02 1354.51 149.87"/><path class="cls-12" d="M1894,137l-30.92-40.66L1852,106l-18-7-31,7-28,36-51-12-22.94,10.91L1671,120l-38.6,30.41-29.4-63-16,16-43-81-48,89-20-30-50-10-15,24-16-12-14.93,19.51L1367,92l-16,17.08-47-12.2-13.12,14L1263.52,72,1218,135.5,1206.27,126l-19.48,17.5-10.38-5.83-16.05,6.68L1145,129.5l-34.88,29.64L1110,183h784Z" transform="translate(448 32)"/><path class="cls-13" d="M1000.07,51.07s-4.74-8.53-11-7.18-4.6-.27-7-2.7-4.87-4.87-9.74-4.06-4.06-13.8-18.68-15.42-15.42,7.84-17.45,9.6-7.71-3.92-14.2.14-8.39,2.7-9.07,10.28-6.36,1.08-11.63,9.61,2.84-.41,14.2,1.62,21.92,5.82,26.38.68,4.47,3,10.15,4.6,14.07,5.68,18.4-4.06,18.54-1.22,28.28.4S1000.61,52.42,1000.07,51.07Z" transform="translate(448 32)"/><path class="cls-14" d="M1460,143" transform="translate(448 32)"/><path class="cls-14" d="M1268,143" transform="translate(448 32)"/><path class="cls-14" d="M546,142" transform="translate(448 32)"/><path class="cls-14" d="M354,142" transform="translate(448 32)"/><path class="cls-13" d="M783,72s.78-4.7,7-3.7,13.25-.28,15.69-2.07,4.87-3.58,9.74-3S822,57.68,838,58c13.35.28,8.21,5.58,26,3.68,7.58-.82,1.82,2,7.3,5.88s30.54,1,36.7,3.43c4.17,1.66-30.7,5.38-35.75,3.88C861.55,71.69,864,90,848,84.46c-5.53-1.91-14.32.35-20,1.54s-14.37-.82-18.7-8S781,81,771,78C761.6,75.18,782.46,73,783,72Z" transform="translate(448 32)"/><path class="cls-13" d="M550.27,63.54s-7.44,8.79-1.76,6.76,27.87-9.06,49.25-1.89c6.76,4.73,4.06,9.87,12.72,8.93,0,0,5.41-1.76,6.22,2.3s8.12,11.36,17.86,8.93,15.69-12.72,19.62-8.8,14.47,8.52,20.15-7.17c4.06-10,13-3.52,17-3.52,0,0,12.45-4.06-3.52-10.55S670,63.67,667.3,54.2s-9.2-7.58-12.85-6.9S650.52,31.47,632,32s-13.26,15.56-22.19,11.5-17-1.08-22.32,8c-3.66,5-6.09-1.49-10.15-.28s-2.71,8-11.09,6.23S550.27,63.54,550.27,63.54Z" transform="translate(448 32)"/><path class="cls-13" d="M1250.61,76.54s3.92,6.18-2.31,5.19S1236.44,88.21,1234,90s-6.26-2.63-11.13-3.23-6.57,5.58-22.57,5.24c-13.35-.28-8.21-5.58-26-3.67-7.58.81-1.82-2-7.3-5.88s-24,1.54-19-5.68c2.56-3.69,11-9.78,18-1.64,7.31,8.44,19.79-13.35,24.25-9.58s10.32,1.93,16,.74,18.37-1.46,22.7,5.7,10.51,3.14,20.25,2S1251.15,75.54,1250.61,76.54Z" transform="translate(448 32)"/><path class="cls-13" d="M253,89s.78-4.7,7-3.7,13.25-.28,15.69-2.07,4.87-3.58,9.74-3S292,74.68,308,75c13.35.28,8.21,5.58,26,3.68,7.58-.82,1.82,2,7.3,5.88s30.54,1,36.7,3.43c4.17,1.66-30.7,5.38-35.75,3.88C331.55,88.69,334,107,318,101.46c-5.53-1.91-14.32.35-20,1.54s-14.37-.82-18.7-8S251,98,241,95C231.6,92.18,252.46,90,253,89Z" transform="translate(448 32)"/><path class="cls-13" d="M1628.07,64.07s-4.74-8.53-11-7.18-4.6-.27-7-2.7-4.87-4.87-9.74-4.06-4.06-13.8-18.68-15.42-15.42,7.84-17.45,9.6-7.71-3.92-14.2.14-8.39,2.7-9.07,10.28-6.36,1.08-11.63,9.61,2.84-.41,14.2,1.62,21.92,5.82,26.38.68,4.47,3,10.15,4.6,14.07,5.68,18.4-4.06,18.54-1.22,28.28.4S1628.61,65.42,1628.07,64.07Z" transform="translate(448 32)"/><path class="cls-15" d="M1920,71c-9.54,1.66-14.46,7.21-15,16.89-.1,1.72.52,3.62-2.3,4.13-9.54,1.73-16.86,7-22.6,14.68-1.36,1.82-3.07,5-4.46,4.9-5.29-.32-9.8,2.92-15,2.47-7.8-.68-14.67,2.28-20.29,7.38-3.19,2.9-4.94,2.55-7.71-.28-6.45-6.57-14.5-9.35-23.58-7.85-3.08.51-33,9.25-33.67,7.11-2-6.7-7.4-9.05-13.29-10.35-7.51-1.65-13.58,1.91-17.53,7.74-2.22,3.26-3.62,3.39-6.69,2.14-12-4.87-23.52-5.3-33.67,4.41-2.76,2.63-6,3.57-9.88,3.79-5.64.31-11.15,2.26-14.18,7.49-3.32,5.71-6.36,10.57-14.4,9.88-3.21-.28-2.68-6.53-12.68-4.53-30-12-37.66,3.46-55.3,9.57a6.12,6.12,0,0,1-6.42-1.16A38.18,38.18,0,0,0,1577.9,142c-11.63-3.31-20.47,1.91-28.28,9.84-3.7,3.76-12.46,5.27-17.75,3-7.87-1.92-11.82,1.27-14.64,3-5.53,3.32-9.78,5.41-15.81-1.33-6.5-7.27-16.48-8.49-26.23-5.12-2.58.89-4.42.52-6.61-1.59-2.4-2.32-4.18-5.15-6.63-7.31-11.39-10.05-24.35-16.24-40-15.53v0c-11,0-10.56,4.78-25-3-13-7-21,0-24,2s-9,1-9,1c-15.6-.71-28.56,5.48-40,15.53-2.45,2.16-4.23,5-6.63,7.31-2.19,2.11-4,2.48-6.6,1.59-9.76-3.37-19.74-2.15-26.24,5.12-6,6.74-10.28,4.65-15.81,1.33-2.82-1.69-6.77-4.88-14.64-3-5.29,2.23-14.05.72-17.75-3-7.81-7.93-16.65-13.15-28.28-9.84a38.18,38.18,0,0,0-13.38,7.37,6.12,6.12,0,0,1-6.42,1.16c-17.64-6.11-39.1,4.73-43.29,22.38-.76,3.18-2.48,3.3-5.69,3.58-8,.69-11.08-4.17-14.4-9.88-3-5.23-8.54-7.18-14.18-7.49-3.92-.22-7.12-1.16-9.88-3.79-10.15-9.71-21.66-9.28-33.67-4.41-3.07,1.25-4.47,1.12-6.69-2.14-4-5.83-10-9.39-17.53-7.74-5.89,1.3-11.33,3.65-13.29,10.35-.62,2.14-1.59,3.4-4.67,2.89a27.39,27.39,0,0,0-8.06-.18l0-.14c-21-3-3.53-22.35-27-19-7,1-5-10-11-8-7,2-8-14-18.38-15.4-5.29-.32-9.8,2.92-15,2.47-7.8-.68-14.67,2.28-20.29,7.38-3.19,2.9-4.94,2.55-7.71-.28-6.45-6.57-14.5-9.35-23.58-7.85-3.08.51-33,9.25-33.67,7.11-2-6.7-7.4-9.05-13.29-10.35-7.51-1.65-13.58,1.91-17.53,7.74-2.22,3.26-3.62,3.39-6.69,2.14-12-4.87-23.52-5.3-33.67,4.41-2.76,2.63-6,3.57-9.88,3.79-5.64.31-11.15,2.26-14.18,7.49-3.32,5.71-6.36,10.57-14.4,9.88C747.47,145.25,748,139,738,141c-30-12-37.66,3.46-55.3,9.57a6.12,6.12,0,0,1-6.42-1.16A38.18,38.18,0,0,0,662.9,142c-11.63-3.31-20.47,1.91-28.28,9.84-3.7,3.76-12.46,5.27-17.75,3-7.87-1.92-11.82,1.27-14.64,3-5.53,3.32-9.78,5.41-15.81-1.33-6.5-7.27-16.48-8.49-26.23-5.12-2.58.89-4.42.52-6.61-1.59-2.4-2.32-4.18-5.15-6.63-7.31-11.13-9.82-23.77-15.94-38.9-15.55l-.05-1c-11,0-10.56,4.78-25-3-13-7-21,0-24,2s-9,1-9,1l0,1c-15.59-.7-28.54,5.49-39.92,15.53-2.45,2.16-4.23,5-6.63,7.31-2.19,2.11-4,2.48-6.6,1.59-9.76-3.37-19.74-2.15-26.24,5.12-6,6.74-10.28,4.65-15.81,1.33-2.82-1.69-6.77-4.88-14.64-3-5.29,2.23-14.05.72-17.75-3-7.81-7.93-16.65-13.15-28.28-9.84a38.18,38.18,0,0,0-13.38,7.37,6.12,6.12,0,0,1-6.42,1.16C256.66,144.46,235.2,155.3,231,173c-.76,3.18-2.48,3.3-5.69,3.58-8,.69-11.08-4.17-14.4-9.88-3-5.23-8.54-7.18-14.18-7.49-3.92-.22-7.12-1.16-9.88-3.79-10.15-9.71-21.66-9.28-33.67-4.41-3.07,1.25-4.47,1.12-6.69-2.14-3.95-5.83-10-9.39-17.53-7.74-5.89,1.3-11.33,3.65-13.29,10.35-.62,2.14-1.59,3.4-4.67,2.89-9.07-1.5-17.13,1.28-23.58,7.85-2.77,2.83-4.52,3.18-7.71.28-5.62-5.1-12.48-8.06-20.29-7.38-5.25.45-9.76-2.79-15-2.47-1.39.08-3.1-3.08-4.46-4.9C34.18,140,26.86,134.75,17.32,133c-2.82-.51-2.2-2.41-2.3-4.13-.56-9.68-5.48-15.23-15-16.89,0,25.33,0,50.67-.07,76,0,2.5.57,3.06,3.07,3.06q222-.1,444,0a8.71,8.71,0,0,0,1.09-.06h60.83a8.43,8.43,0,0,0,1.08.06c120.8-.05,273.58-.06,406.13,0q.39,0,.87,0h85l.6,0q179.19,0,358.4,0a8.71,8.71,0,0,0,1.09-.06h61.83a8.43,8.43,0,0,0,1.08.06c148-.07,344-.07,492,0,2.5,0,3.08-.56,3.07-3.06C1920,162.67,1920,96.33,1920,71Z" transform="translate(448 32)"/></g></svg>