<svg id="Calque_1" data-name="Calque 1" xmlns="http://www.w3.org/2000/svg" viewBox="0 0 249.86 276.67"><defs><style>.cls-1{fill:#f3c2b7;}.cls-2{fill:#b69289;}.cls-3{fill:#321f12;}</style></defs><title>bastien</title><ellipse class="cls-1" cx="1441.2" cy="466.34" rx="126.75" ry="119.2" transform="translate(-376.93 1578.75) rotate(-88.54)"/><path class="cls-1" d="M1326.31,461.34s-3.33-6.64-9.92-2.55c-4.6,2.84,4.4,36.71,12.79,31.56C1329.18,490.35,1331,475.4,1326.31,461.34Z" transform="translate(-1315.14 -316.42)"/><path class="cls-1" d="M1553.65,459.45s2.8-6.88,9.69-3.34c4.8,2.48-1.48,36.95-10.26,32.48C1553.08,488.59,1550.08,473.83,1553.65,459.45Z" transform="translate(-1315.14 -316.42)"/><path class="cls-2" d="M1555.79,468.61s1.06-6.36,4.19-7,.58,12.08-1.75,16.29S1555,481.37,1555.79,468.61Z" transform="translate(-1315.14 -316.42)"/><path class="cls-2" d="M1333.28,484.07s35.89-14.76,52.53-26.2,60.14,9.62,97.73-4c0,0,32.76,26,59.69,35.55l-1.59-56.05-40.59-35.75L1369.7,398.8l-37.4,36.78Z" transform="translate(-1315.14 -316.42)"/><path class="cls-3" d="M1559.41,447.51c6.14,50.44-12.77,55.08-12.77,55.08l-3-6L1541,459.15l-34.26-40.68s-62.23,26.1-119.89.39l-44.08,26.57-7.25,44.67-4.63,4s-17.24-26.22-5.77-68.17c21.72-79.43,47.86-91.14,119.43-89.31C1515.68,338.45,1547.16,346.83,1559.41,447.51Z" transform="translate(-1315.14 -316.42)"/><circle class="cls-3" cx="36.64" cy="55.93" r="13.58"/><circle class="cls-3" cx="181.78" cy="97.56" r="13.58"/><circle class="cls-3" cx="163.03" cy="110.79" r="13.58"/><circle class="cls-3" cx="146.71" cy="105.02" r="13.58"/><circle class="cls-3" cx="111.5" cy="104.52" r="13.58"/><circle class="cls-3" cx="97.52" cy="101.09" r="13.58"/><circle class="cls-3" cx="72.04" cy="106.16" r="13.58"/><circle class="cls-3" cx="46.47" cy="108.69" r="13.58"/><circle class="cls-3" cx="208.74" cy="108.54" r="13.58"/><circle class="cls-3" cx="29.28" cy="72.91" r="13.58"/><circle class="cls-3" cx="51.92" cy="40.77" r="13.58"/><circle class="cls-3" cx="72.75" cy="30.18" r="13.58"/><circle class="cls-3" cx="93.65" cy="22.99" r="13.58"/><circle class="cls-3" cx="131.23" cy="13.58" r="13.58"/><circle class="cls-3" cx="114.6" cy="26.03" r="13.58"/><circle class="cls-3" cx="146.08" cy="25.76" r="13.58"/><circle class="cls-3" cx="170.48" cy="27" r="13.58"/><circle class="cls-3" cx="189.6" cy="38.76" r="13.58"/><circle class="cls-3" cx="219.59" cy="65.96" r="13.58"/><circle class="cls-3" cx="211.19" cy="46.6" r="13.58"/></svg>