<svg id="Calque_1" data-name="Calque 1" xmlns="http://www.w3.org/2000/svg" viewBox="0 0 671 536.74"><defs><style>.cls-1{fill:#ebebeb;}.cls-2{fill:#f3c2b7;}.cls-3{fill:#6f33ff;}.cls-4{fill:#5326bf;}.cls-5{fill:#434151;}.cls-6{fill:#b69289;}.cls-7{fill:#432918;}.cls-8{fill:#22150c;}.cls-9{fill:#321f12;}.cls-10{fill:#988c78;}.cls-11{fill:#df93cb;}.cls-12{fill:#333;}.cls-13{fill:#72695a;}.cls-14{fill:#29235c;}.cls-15{fill:#1d71b8;}.cls-16{fill:#1e1e1e;}.cls-17{fill:#dadada;}.cls-18{fill:#bfbfbf;}</style></defs><title>Illustration de groupe</title><ellipse class="cls-1" cx="325" cy="506.74" rx="325" ry="30"/><path class="cls-2" d="M613.57,397.31s6.67-7.85,6.67-11-.69-12.61-3.34-7.87-4-12.22-10.61-8.83-4.59,23.85,3.05,31.6S613.57,397.31,613.57,397.31Z" transform="translate(-581 -249.26)"/><path class="cls-2" d="M803.93,595.71s-2.41,11.81-5.65,15.45,8.11,9,13.69,3S811,595,811,595Z" transform="translate(-581 -249.26)"/><path class="cls-3" d="M685.74,548s-1.87,120,4.22,176.6,10.78,9.27,9.37-16,10.31-130.78,26.24-141.07,25.78,11.84,30.93,48.39,10.78,117.39,14.06,128.72,7.5-6.69,9.38-74.14,9.37-95.25,5.15-127.17S685.74,548,685.74,548Z" transform="translate(-581 -249.26)"/><path d="M778.24,740.29S784.92,755,807.33,760s-57.48,17.51-37.76-20.34C769.57,739.69,774.85,737.16,778.24,740.29Z" transform="translate(-581 -249.26)"/><path d="M690.65,739.83s-6.68,14.69-29.09,19.74,57.48,17.51,37.76-20.34C699.32,739.23,694,736.69,690.65,739.83Z" transform="translate(-581 -249.26)"/><path class="cls-4" d="M685.31,554.17s7.2,6.27,13.47,5.8,8.12-1.39,9.28-.93-1.16-8.35-1.16-8.35l-21.16-4.57Z" transform="translate(-581 -249.26)"/><path class="cls-4" d="M785.5,549.06s-14,8.13-24.81,7.2-3-6.27-2.3-11.84l26-3.71A21.29,21.29,0,0,1,785.5,549.06Z" transform="translate(-581 -249.26)"/><path class="cls-5" d="M708.37,385.39s-20.12,98.13-11.76,150.33L697.85,552s49.82,2.29,78-4.84c0,0-27.35-160.36-33.79-165.76C742.05,381.38,737.15,390,708.37,385.39Z" transform="translate(-581 -249.26)"/><ellipse class="cls-2" cx="142.95" cy="62.05" rx="48.9" ry="51.99"/><path class="cls-2" d="M712.5,358a20.59,20.59,0,0,1,.88,19.57c-6.08,13.28,6,11.54,9,11.85,3.26.34,20.8-1.71,19.88-8.2s-3.72-10.22-2.79-21.36" transform="translate(-581 -249.26)"/><path class="cls-6" d="M711.58,383.24s7.63-3,8.09-11.19,9.51-3.11,16.63-10.07c0,0-11.71,1.48-22.17-.21a15.8,15.8,0,0,1,.24,11.49C713.73,375.81,711.7,381.64,711.58,383.24Z" transform="translate(-581 -249.26)"/><path d="M679.18,436.49s-6.87,13.69-34.75,33c-3.13,2.16-18,.74-25.43-18.57-9.25-24.05-10.67-48.28-9.66-50.14.3-2.09,3.62-5.34,5.91-4.64S629.61,455.86,643.5,445c17.73-13.81,14.25-46.62,25.33-48s42.48-13,42.48-13" transform="translate(-581 -249.26)"/><path d="M774.18,429.52c.84,11.61,17.24,55.71,21.44,76.14s6.88,88.55,8.41,90.52,5.6,2.09,7.56.93,0-78,.42-90.52-13.87-117-21.85-117-48.11-8.34-48.11-8.34" transform="translate(-581 -249.26)"/><path d="M673.64,421.05s5.91,101.84,9.6,121.09,15.15,11.7,28.45,12.56a89.28,89.28,0,0,0-.37-20.26c-1.48-11.12-8.81-112.71.58-151.35Z" transform="translate(-581 -249.26)"/><path d="M774.18,412.35s12.61,101.35,12.61,125.8c0,12.83-8.38,11.68-23.12,14.13-18.07,3-13.87-3.44-10.08-41.52,2.87-29-7-120.09-11.18-127.79C742.41,383,744.27,375.21,774.18,412.35Z" transform="translate(-581 -249.26)"/><path class="cls-2" d="M770,307.31a2.72,2.72,0,0,1,3.93-1.47c2,1-.22,15.17-3.86,13.43A30.68,30.68,0,0,1,770,307.31Z" transform="translate(-581 -249.26)"/><path class="cls-2" d="M677.11,307.31a2.81,2.81,0,0,0-4-1.47c-2,1,.23,15.17,3.95,13.43A30.14,30.14,0,0,0,677.11,307.31Z" transform="translate(-581 -249.26)"/><path class="cls-6" d="M771,311s.37-2.62,1.65-2.91.36,4.95-.55,6.7S770.78,316.28,771,311Z" transform="translate(-581 -249.26)"/><path class="cls-6" d="M676.17,311s-.38-2.62-1.68-2.91-.38,4.95.56,6.7S676.35,316.28,676.17,311Z" transform="translate(-581 -249.26)"/><path class="cls-7" d="M767.61,323.67l-24,22s-4.34,10.53-10.52,11.14a35,35,0,0,1-9.29,0v6.48s28.35,3.8,44.35-26.87Z" transform="translate(-581 -249.26)"/><path class="cls-7" d="M681.68,323.67l24,22s4.33,10.53,10.52,11.14a34.91,34.91,0,0,0,9.28,0v6.48s-28.35,3.8-44.35-26.87Z" transform="translate(-581 -249.26)"/><path class="cls-7" d="M723,347.36h5s-1.55,5.57-2.48,4.95S723,347.36,723,347.36Z" transform="translate(-581 -249.26)"/><path class="cls-7" d="M726.12,337.54s7.39,2.47,12.36,6.19-7.09-3.41-12.36-3.1Z" transform="translate(-581 -249.26)"/><path class="cls-7" d="M724.8,337.54s-7.38,2.47-12.35,6.19,7.09-3.41,12.35-3.1Z" transform="translate(-581 -249.26)"/><path class="cls-6" d="M682,319.41s14.57-6.42,21.27-11.29,24.76,3.32,40-2.66c0,0,13.71,10.3,24.85,14l-1.24-23-17-14.24-53.85,1.86-14.95,15.47Z" transform="translate(-581 -249.26)"/><ellipse class="cls-8" cx="142.95" cy="10.06" rx="13.96" ry="10.06"/><path class="cls-9" d="M772.22,301.55c.83,21.36-6.22,31.57-6.22,31.57l.89-5.75-2.11-20.72L750.3,289.89s-25.24,11.66-49.15,1.46L683.35,303l-1.92,23.71,0,5.75S670.9,312.57,675.9,295s18.68-38.86,48.05-38.86C755.79,256.13,771.56,284.29,772.22,301.55Z" transform="translate(-581 -249.26)"/><path class="cls-7" d="M725.48,361.15v8.46c6.31.43,14.82-8.46,14.82-8.46Z" transform="translate(-581 -249.26)"/><path class="cls-7" d="M710.63,361.15s8.51,8.89,14.82,8.46v-8.46Z" transform="translate(-581 -249.26)"/><path class="cls-2" d="M979.19,586.61s2.41,11.81,5.64,15.45-8.11,9-13.68,3,.93-19.11.93-19.11Z" transform="translate(-581 -249.26)"/><path class="cls-10" d="M1138.63,547.06s1.87,120-4.22,176.6-10.78,9.27-9.37-16-10.31-130.77-26.25-141.07S1073,578.47,1067.86,615s-10.78,117.38-14.06,128.71-7.49-6.69-9.37-74.14-9.37-95.25-5.15-127.17S1138.63,547.06,1138.63,547.06Z" transform="translate(-581 -249.26)"/><path d="M1134.18,738.92s6.68,14.7,29.1,19.74-57.49,17.51-37.76-20.34C1125.52,738.32,1130.79,735.78,1134.18,738.92Z" transform="translate(-581 -249.26)"/><ellipse class="cls-2" cx="1107.08" cy="311" rx="51.99" ry="48.9" transform="translate(80.27 1121.74) rotate(-82.88)"/><path class="cls-2" d="M1086.77,355a20.57,20.57,0,0,1-2.26,19.45c-8.14,12.14,4.08,12.35,6.93,13.13,3.17.86,20.81,1.66,20.94-4.91s-2-10.67.67-21.52" transform="translate(-581 -249.26)"/><path class="cls-6" d="M1081.83,379.68s8-1.72,9.78-9.74,9.88-1.55,18-7.28c0,0-11.8-.42-21.85-3.76a15.79,15.79,0,0,1-1.61,11.37C1085.14,372.69,1082.21,378.12,1081.83,379.68Z" transform="translate(-581 -249.26)"/><path class="cls-2" d="M1060.38,304.31a2.73,2.73,0,0,0-4-1.44c-2,1,.32,15.17,4,13.4A30.77,30.77,0,0,0,1060.38,304.31Z" transform="translate(-581 -249.26)"/><path class="cls-2" d="M1153.26,312.73a2.73,2.73,0,0,1,4.09-1c1.86,1.21-2.1,15-5.5,12.85A30.78,30.78,0,0,1,1153.26,312.73Z" transform="translate(-581 -249.26)"/><path class="cls-6" d="M1153.77,316.56s.68-2.55,2-2.68-.25,4.95-1.38,6.57S1152.93,321.74,1153.77,316.56Z" transform="translate(-581 -249.26)"/><path class="cls-6" d="M1062.31,313.87s15.25-4.57,22.5-8.57,24.16,6.36,40,2.33c0,0,12.33,11.92,22.94,16.92l1.61-22.94-15.12-16.24-53.67-4.83L1063.87,294Z" transform="translate(-581 -249.26)"/><path class="cls-11" d="M994.68,500.27c-.42-12.54,31.49-100.29,46.47-107.71,7.16-3.55,41.17-12.21,41.17-12.21l1.08,1.06c3.78,3.1,16.85,12.08,28.85-.27,0,0,17.64,7.44,34.43,3.54,0,0,57.2-26.92,83.51-78.29,6.18-6.69,14.85-5,11.45,1.54s-39.34,57.65-60.2,80.65c-29.71,32.77-26.24,35.31-32.12,59.42s-10,56.56-10.07,56.79c-.24,12.55-.36,24.27-.87,34.94-.67,13.69,10.32,20.47-17.74,14.66-12.54.32-42.65.56-64.82-3.54-11.86-.64-18.84,6.69-17.81-4.62,4.36-47.82,6.65-72,6.64-113.89-3.31,15.79-29.8,48.62-33.58,67-4.2,20.43-30.46,85.77-32,87.74s-5.6,2.09-7.57.93S995.1,512.8,994.68,500.27Z" transform="translate(-581 -249.26)"/><path class="cls-9" d="M1156.1,308.09c.46,20.84-7.45,22-7.45,22l-1-2.56.4-15.4-12.34-18s-26.45,8.14-49-4.69l-19.07,9.06L1063,316.42l-2,1.45s-6-11.4.4-28.06c12.08-31.54,23.22-35.26,52.37-31.62C1142.65,261.81,1155.17,266.5,1156.1,308.09Z" transform="translate(-581 -249.26)"/><circle class="cls-9" cx="493.38" cy="19.76" r="5.57"/><circle class="cls-9" cx="550.94" cy="42.62" r="5.57"/><circle class="cls-9" cx="542.75" cy="47.26" r="5.57"/><circle class="cls-9" cx="536.33" cy="44.24" r="5.57"/><circle class="cls-9" cx="521.97" cy="42.62" r="5.57"/><circle class="cls-9" cx="516.4" cy="40.65" r="5.57"/><circle class="cls-9" cx="505.8" cy="41.69" r="5.57"/><circle class="cls-9" cx="495.26" cy="41.69" r="5.57"/><circle class="cls-9" cx="561.5" cy="48.19" r="5.57"/><circle class="cls-9" cx="489.69" cy="26.39" r="5.57"/><circle class="cls-9" cx="500.23" cy="14.18" r="5.57"/><circle class="cls-9" cx="509.16" cy="10.7" r="5.57"/><circle class="cls-9" cx="517.98" cy="8.61" r="5.57"/><circle class="cls-9" cx="533.7" cy="6.29" r="5.57"/><circle class="cls-9" cx="526.41" cy="10.7" r="5.57"/><circle class="cls-9" cx="539.27" cy="11.86" r="5.57"/><circle class="cls-9" cx="549.18" cy="13.36" r="5.57"/><circle class="cls-9" cx="556.51" cy="18.93" r="5.57"/><circle class="cls-9" cx="567.65" cy="31.25" r="5.57"/><circle class="cls-9" cx="565.01" cy="23" r="5.57"/><path class="cls-2" d="M1230.19,306.39v-15c0-5.34,5.1-6.27,6-3.6s3.48-12.88,10.21-8.47,9.67,17.11-4.79,28.63C1237.38,310.91,1230.19,306.39,1230.19,306.39Z" transform="translate(-581 -249.26)"/><path d="M1046.13,739.38s-6.68,14.7-29.1,19.74,57.49,17.51,37.76-20.33C1054.79,738.79,1049.52,736.25,1046.13,739.38Z" transform="translate(-581 -249.26)"/><polygon class="cls-12" points="465.97 472.12 475.94 472.12 473.79 489.52 467.68 488.83 465.97 472.12"/><rect class="cls-13" x="465.33" y="469.2" width="11.26" height="3.5" rx="0.94" ry="0.94"/><polygon class="cls-12" points="543.47 473.51 544.71 488.79 552.05 488.79 553.59 472.7 543.47 473.51"/><rect class="cls-13" x="542.73" y="470.95" width="11.76" height="3.5" rx="0.94" ry="0.94"/><path class="cls-4" d="M811.06,552s-1.87,120,4.22,176.6,10.78,9.27,9.37-16S835,581.9,850.9,571.6s25.77,11.85,30.93,48.4,10.78,117.39,14.06,128.72,7.49-6.7,9.37-74.14,9.37-95.25,5.15-127.17S811.06,552,811.06,552Z" transform="translate(-581 -249.26)"/><path class="cls-14" d="M903.56,744.36s6.68,14.7,29.1,19.74-57.49,17.51-37.76-20.34C894.9,743.76,900.17,741.23,903.56,744.36Z" transform="translate(-581 -249.26)"/><path class="cls-14" d="M816,743.9s-6.67,14.69-29.09,19.73,57.48,17.51,37.76-20.33C824.64,743.3,819.36,740.76,816,743.9Z" transform="translate(-581 -249.26)"/><ellipse class="cls-2" cx="268.27" cy="66.12" rx="48.9" ry="51.99"/><path class="cls-2" d="M837.82,362.11a20.59,20.59,0,0,1,.88,19.57c-6.08,13.28,6,11.53,8.95,11.84,3.26.35,20.81-1.7,19.88-8.2s-3.71-10.21-2.79-21.35" transform="translate(-581 -249.26)"/><path class="cls-6" d="M836.9,387.3s7.63-3,8.1-11.18,9.51-3.11,16.62-10.07c0,0-11.71,1.47-22.16-.22a15.84,15.84,0,0,1,.23,11.49C839.05,379.88,837,385.71,836.9,387.3Z" transform="translate(-581 -249.26)"/><path class="cls-2" d="M896.11,313.11a2.71,2.71,0,0,1,3.93-1.46c2,1-.22,15.16-3.86,13.42A30.66,30.66,0,0,1,896.11,313.11Z" transform="translate(-581 -249.26)"/><path class="cls-2" d="M802.43,311.37a2.79,2.79,0,0,0-4-1.46c-2,1,.22,15.16,3.94,13.42A30.12,30.12,0,0,0,802.43,311.37Z" transform="translate(-581 -249.26)"/><path class="cls-6" d="M896.28,315.11s.37-2.62,1.65-2.91.36,4.95-.55,6.7S896.1,320.35,896.28,315.11Z" transform="translate(-581 -249.26)"/><path class="cls-6" d="M801.49,315.11s-.37-2.62-1.68-2.91-.37,4.95.56,6.7S801.68,320.35,801.49,315.11Z" transform="translate(-581 -249.26)"/><path d="M848.31,351.43h5s-1.54,5.57-2.47,4.95S848.31,351.43,848.31,351.43Z" transform="translate(-581 -249.26)"/><path d="M851.45,341.6s7.38,2.48,12.35,6.19-7.09-3.4-12.35-3.09Z" transform="translate(-581 -249.26)"/><path d="M850.13,341.6s-7.39,2.48-12.36,6.19,7.09-3.4,12.36-3.09Z" transform="translate(-581 -249.26)"/><path class="cls-6" d="M807.34,323.48s14.57-6.43,21.27-11.29,24.76,3.31,40-2.66c0,0,13.71,10.3,24.86,14l-1.24-23-17-14.23-53.85,1.85-14.95,15.48Z" transform="translate(-581 -249.26)"/><path d="M897.55,306.42c3,20.62-6.23,30.77-6.23,30.77l.89-5.61-2.11-20.19-14.47-16.33s-25.25,11.36-49.16,1.42l-17.8,11.36-1.92,23.1,0,5.61S797,317.35,801.23,300c8.07-32.8,18.67-37.88,48-37.88C878.47,262.15,891.47,265.26,897.55,306.42Z" transform="translate(-581 -249.26)"/><path class="cls-15" d="M867.37,385.45s-15.92,16.34-30.14,1.71c0,0-32.57,11.52-43.09,20.77s-14.86,159.35-20.43,178.52c-.6,5.78,6.57,7.94,9.16-7.93s15.17-66.78,14.77-80.67c-.36-12.27,11.6-43.65,14.38-50.76,0,32.11-.13,89.51-1.6,102.83-1.73,15.65,7.89,11.32,18.63,9.45,12.55.32,42.65.55,64.82-3.55,11.86-.63,19,3.29,18.25-8-1.3-18.32-20.38-128.31-14.72-132.65,48.42-7.89,74.08-41.44,91.59-34.69,11.77,4.53,42.35,18.79,43.87,20.77s3.37-2.09,5.34-3.25-44.53-32.13-50.2-33.49c-12.19-2.94-79.52,32.45-94.5,25-7.16-3.54-26.13-4.17-26.13-4.17" transform="translate(-581 -249.26)"/><path d="M893.58,330.78s-8.28,32.07-44.34,33.45c-36.06-1.38-44.34-33.45-44.34-33.45l-1.42,2.64c11.74,34.67,39.69,34.45,45.76,34,6.07.48,34,.7,45.76-34Z" transform="translate(-581 -249.26)"/><path class="cls-16" d="M826.47,296.48s-14.6-1.23-21.92-7.91a52.65,52.65,0,0,0,.35,44.06l1.9,3.28,2.91-28.3Z" transform="translate(-581 -249.26)"/><path class="cls-16" d="M875.63,295.06s16.21-3.53,18.17-6.49c0,0,11.83,33.35-2.36,47.87,0,0-.61-22.13-1.34-25.05Z" transform="translate(-581 -249.26)"/><path d="M872.29,270.79s-1.86-11.37-6.73-12.3-19.93,0-22.85-1.85-6.86,1.85-2.45,3.71-9-4.69-7.67-1.39-12.9-.62-9.28,2.62-9.58,11.46-8.85,16.26S872.29,270.79,872.29,270.79Z" transform="translate(-581 -249.26)"/><circle cx="317.74" cy="73.54" r="1.35"/><path class="cls-2" d="M781.06,586.78s2.41,11.8,5.65,15.45-8.11,9-13.69,3,.94-19.1.94-19.1Z" transform="translate(-581 -249.26)"/><path class="cls-2" d="M935.64,308.22a2.8,2.8,0,0,0-4-1.47c-2,1,.23,15.17,4,13.43A30,30,0,0,0,935.64,308.22Z" transform="translate(-581 -249.26)"/><path class="cls-6" d="M934.7,312s-.37-2.63-1.68-2.92-.37,4.95.56,6.7S934.89,317.2,934.7,312Z" transform="translate(-581 -249.26)"/><path class="cls-2" d="M1062.47,596.63s-2.42,11.8-5.65,15.45,8.11,9,13.68,3-.93-19.11-.93-19.11Z" transform="translate(-581 -249.26)"/><path class="cls-5" d="M944.28,548.88s-1.88,120,4.22,176.6,10.77,9.27,9.37-16,10.31-130.77,26.24-141.07,25.78,11.84,30.93,48.4,10.78,117.39,14.06,128.71,7.5-6.69,9.37-74.14,9.38-95.25,5.16-127.17S944.28,548.88,944.28,548.88Z" transform="translate(-581 -249.26)"/><path d="M1036.78,741.21s6.67,14.69,29.09,19.73-57.48,17.51-37.76-20.33C1028.11,740.61,1033.39,738.07,1036.78,741.21Z" transform="translate(-581 -249.26)"/><path d="M949.19,740.74s-6.68,14.7-29.1,19.74,57.49,17.51,37.76-20.34C957.85,740.14,952.58,737.61,949.19,740.74Z" transform="translate(-581 -249.26)"/><ellipse class="cls-2" cx="401.48" cy="62.96" rx="48.9" ry="51.99"/><path class="cls-2" d="M971,359a20.56,20.56,0,0,1,.89,19.56c-6.09,13.28,6,11.54,8.94,11.85,3.27.34,20.81-1.7,19.88-8.2S997,372,998,360.81" transform="translate(-581 -249.26)"/><path class="cls-6" d="M970.12,384.15s7.63-3,8.09-11.19,9.51-3.11,16.63-10.07c0,0-11.71,1.48-22.17-.21a15.84,15.84,0,0,1,.23,11.49C972.27,376.72,970.24,382.55,970.12,384.15Z" transform="translate(-581 -249.26)"/><path class="cls-2" d="M1028.52,308.22a2.73,2.73,0,0,1,3.94-1.47c2,1-.22,15.17-3.86,13.43A30.79,30.79,0,0,1,1028.52,308.22Z" transform="translate(-581 -249.26)"/><path class="cls-6" d="M1029.5,312s.36-2.63,1.64-2.92.37,4.95-.54,6.7S1029.32,317.2,1029.5,312Z" transform="translate(-581 -249.26)"/><path class="cls-6" d="M940.56,320.32s14.56-6.42,21.27-11.29,24.76,3.32,40-2.66c0,0,13.71,10.31,24.85,13.95l-1.24-23-17-14.24L954.6,285l-15,15.47Z" transform="translate(-581 -249.26)"/><path class="cls-9" d="M1030.76,303.26c3,20.62-6.22,30.77-6.22,30.77l.89-5.61-2.11-20.19-14.48-16.32s-25.24,11.35-49.16,1.42l-17.8,11.35L940,327.78l0,5.61s-9.82-19.19-5.56-36.52c8.08-32.8,18.67-37.87,48-37.87C1011.69,259,1024.68,262.11,1030.76,303.26Z" transform="translate(-581 -249.26)"/><path class="cls-17" d="M1000.58,382.29s-15.92,16.35-30.14,1.71c0,0-39.42,14.6-50,23.85s-3.24,69.92-8.81,89.1c-.33,3.14-4.79,22.63,43.88,8.24,26.38-7.8,35.67-7.43,36.68-12.07,3.42-15.71-61,15.46-61.39,1.58-.36-12.28,6-45.37,8.8-52.49-5.58,55.23-4,82.84,0,106.31C942.29,564,944,560,962.26,556.21c12.55.33,42.66.56,64.82-3.54,11.87-.64,18.56,7.07,20.33-4.15,7.13-45.22-5.36-82-9.15-114.35,3.3,15.79,12.11,54,15.9,72.4,4.2,20.42,6.88,88.55,8.4,90.52s5.61,2.09,7.57.93,0-78,.42-90.52-2.67-103.84-17.65-111.26c-7.16-3.55-52.31-14.07-52.31-14.07" transform="translate(-581 -249.26)"/><path class="cls-7" d="M959.68,293.33s-14.6-1.24-21.91-7.92a52.65,52.65,0,0,0,.34,44.07l1.9,3.28,2.91-28.3Z" transform="translate(-581 -249.26)"/><path class="cls-7" d="M1008.84,291.91s16.22-3.53,18.18-6.5c0,0,11.82,33.36-2.36,47.87,0,0-.62-22.12-1.34-25Z" transform="translate(-581 -249.26)"/><path class="cls-9" d="M1025.31,320.32S1009,340.47,995,349.14c0,0-2.91,7-11.68,6.41v-.07l-.48,0-.48,0v.07c-8.78.55-11.68-6.41-11.68-6.41-14-8.67-30.31-28.82-30.31-28.82l-4.15,4.52c3.88,43.53,41.9,44.78,46.62,44.77s42.73-1.24,46.61-44.77Z" transform="translate(-581 -249.26)"/><path class="cls-18" d="M991.23,494.88s-7.58,9.62-28.24,14-26.5,11.37-26.5,11.37l-.39-10.59S984.88,498.72,991.23,494.88Z" transform="translate(-581 -249.26)"/><path class="cls-18" d="M987.32,498.48s10.14,5.32,15.13,1.72a22.61,22.61,0,0,0,7.09-8.68l-19.39,3.9Z" transform="translate(-581 -249.26)"/><path class="cls-2" d="M989,488s11.36-4,14.54-7.69,10,6.82,4.8,13.16-19.06,1.66-19.06,1.66Z" transform="translate(-581 -249.26)"/><path class="cls-2" d="M1003.15,481.54s-6.62-2-6.37-4.94-3.27-9.4-4.81,3.52c-1,8-3,7.76-3,7.76S998.45,491.33,1003.15,481.54Z" transform="translate(-581 -249.26)"/><path class="cls-18" d="M936.1,496.82s29.83-4.55,41.94-7.21c0,0-37.41,9.37-42,8.72Z" transform="translate(-581 -249.26)"/><path class="cls-7" d="M994.4,293.33a80.44,80.44,0,0,1-.53-15.11,73.52,73.52,0,0,1,.78-7.54,23.25,23.25,0,0,1,2.17-7.29,53.4,53.4,0,0,0-.73,7.44l-.37,7.49C995.43,283.31,995.14,288.31,994.4,293.33Z" transform="translate(-581 -249.26)"/><path class="cls-7" d="M998.12,293.33a80.44,80.44,0,0,1-.54-15.11,73.52,73.52,0,0,1,.78-7.54,23.26,23.26,0,0,1,2.18-7.29,53.42,53.42,0,0,0-.74,7.44l-.37,7.49C999.15,283.31,998.86,288.31,998.12,293.33Z" transform="translate(-581 -249.26)"/><path class="cls-7" d="M1003.69,293.33a80.44,80.44,0,0,1-.54-15.11,73.52,73.52,0,0,1,.78-7.54,23.26,23.26,0,0,1,2.18-7.29,53.42,53.42,0,0,0-.74,7.44l-.37,7.49C1004.72,283.31,1004.43,288.31,1003.69,293.33Z" transform="translate(-581 -249.26)"/><path class="cls-7" d="M1008.84,291.91a66.08,66.08,0,0,1-.94-13.89,60.18,60.18,0,0,1,.61-6.95,19.72,19.72,0,0,1,2-6.71,46.6,46.6,0,0,0-.6,6.85l-.2,6.87C1009.59,282.67,1009.43,287.27,1008.84,291.91Z" transform="translate(-581 -249.26)"/><path class="cls-7" d="M980.11,293.33c-.74-5-1-10-1.31-15l-.37-7.49a53.42,53.42,0,0,0-.74-7.44,23.26,23.26,0,0,1,2.18,7.29,73.52,73.52,0,0,1,.78,7.54A80.44,80.44,0,0,1,980.11,293.33Z" transform="translate(-581 -249.26)"/><path class="cls-7" d="M969,293.33c-.74-5-1-10-1.32-15l-.37-7.49a51.92,51.92,0,0,0-.73-7.44,23.26,23.26,0,0,1,2.18,7.29,73.52,73.52,0,0,1,.78,7.54A80.44,80.44,0,0,1,969,293.33Z" transform="translate(-581 -249.26)"/><path class="cls-7" d="M963.4,293.33c-.74-5-1-10-1.32-15l-.37-7.49a51.92,51.92,0,0,0-.73-7.44,23,23,0,0,1,2.17,7.29,73.55,73.55,0,0,1,.79,7.54A80.44,80.44,0,0,1,963.4,293.33Z" transform="translate(-581 -249.26)"/><path class="cls-7" d="M959.68,293.33c-.74-5-1-10-1.31-15l-.37-7.49a53.4,53.4,0,0,0-.73-7.44,23.25,23.25,0,0,1,2.17,7.29,73.52,73.52,0,0,1,.78,7.54A80.44,80.44,0,0,1,959.68,293.33Z" transform="translate(-581 -249.26)"/><path class="cls-7" d="M1009.11,291.18a23,23,0,0,1,.54-5.36,32.11,32.11,0,0,1,1.57-5.17,26.27,26.27,0,0,1,2.57-4.79,14.8,14.8,0,0,1,3.83-3.86c-1,1.54-1.8,3.05-2.58,4.6s-1.45,3.14-2.1,4.75C1011.62,284.56,1010.48,287.85,1009.11,291.18Z" transform="translate(-581 -249.26)"/><path class="cls-7" d="M1012.51,290.26a14.47,14.47,0,0,1,2.12-3.09,20.28,20.28,0,0,1,2.67-2.57,17.32,17.32,0,0,1,3.16-2,8.76,8.76,0,0,1,3.66-1c-2,1.48-3.78,3-5.66,4.46A49,49,0,0,1,1012.51,290.26Z" transform="translate(-581 -249.26)"/><path class="cls-7" d="M957.27,291.18c-1.38-3.33-2.52-6.62-3.84-9.83q-1-2.42-2.1-4.75c-.78-1.55-1.62-3.06-2.57-4.6a14.92,14.92,0,0,1,3.82,3.86,25.68,25.68,0,0,1,2.57,4.79,32.11,32.11,0,0,1,1.57,5.17A23,23,0,0,1,957.27,291.18Z" transform="translate(-581 -249.26)"/><path class="cls-7" d="M953.86,290.26a49,49,0,0,1-6-4.21c-1.87-1.51-3.62-3-5.65-4.46a8.76,8.76,0,0,1,3.65,1,17,17,0,0,1,3.16,2,20.28,20.28,0,0,1,2.67,2.57A14.11,14.11,0,0,1,953.86,290.26Z" transform="translate(-581 -249.26)"/><path class="cls-2" d="M1033.24,400.11s1.43,11.59.23,16.32,11.35,4.27,13.52-3.66-11.47-16.53-11.47-16.53Z" transform="translate(-581 -249.26)"/><path class="cls-15" d="M1000.74,382.17c11.77,4.53,30.6,16.84,32.12,18.81s3.37-2.08,5.34-3.24c1.48-.88-24.86-18.88-40.17-28.14" transform="translate(-581 -249.26)"/></svg>