<svg id="Calque_1" data-name="Calque 1" xmlns="http://www.w3.org/2000/svg" viewBox="0 0 618.44 665.17"><defs><style>.cls-1{fill:#999;}.cls-2{fill:#ebebeb;}.cls-3{fill:#434151;}.cls-4{fill:#59576c;}.cls-5,.cls-6{fill:#fefefe;}.cls-14,.cls-5{opacity:0.5;}.cls-7{fill:#d0d0d0;}.cls-10,.cls-8{opacity:0.1;}.cls-10,.cls-13,.cls-14,.cls-16,.cls-23,.cls-9{fill:#1d1d1b;}.cls-11{fill:#7a7989;}.cls-12{fill:#6f33ff;}.cls-13{opacity:0.3;}.cls-15{fill:#8a623a;}.cls-16{opacity:0.4;}.cls-17{fill:#4d19b9;}.cls-18{fill:#978a82;}.cls-19{fill:#5207f8;}.cls-20{fill:#5326bf;}.cls-21{fill:#9366ff;}.cls-22{fill:#6e4dbf;}.cls-23{opacity:0.05;}.cls-24{fill:#9c9b9c;}.cls-25{fill:#d0cfd0;}</style></defs><title>erreur 404</title><path class="cls-1" d="M214.18,704.85a19.73,19.73,0,0,1,0-35.09,25.45,25.45,0,0,1,22.33,0,19.74,19.74,0,0,1,0,35.09,25.36,25.36,0,0,1-22.33,0Zm15.53-9.1a8.4,8.4,0,0,0,3.11-3.35,11.75,11.75,0,0,0,0-10.18,8.4,8.4,0,0,0-3.11-3.35,8.62,8.62,0,0,0-8.74,0,8.47,8.47,0,0,0-3.11,3.35,11.84,11.84,0,0,0,0,10.18,8.47,8.47,0,0,0,3.11,3.35,8.68,8.68,0,0,0,8.74,0Z" transform="translate(-190.3 -121.5)"/><path class="cls-1" d="M256.42,702.65q-5-4.78-5-13.42V668.06h13v20.79c0,2.82.5,4.88,1.51,6.16a5.93,5.93,0,0,0,8.74,0c1-1.28,1.52-3.34,1.52-6.16V668.06H289v21.17q0,8.64-5,13.42t-13.81,4.79Q261.37,707.44,256.42,702.65Z" transform="translate(-190.3 -121.5)"/><path class="cls-1" d="M322.75,669.82a13.66,13.66,0,0,1,6.1,5.06,14.86,14.86,0,0,1,0,15.4,13.66,13.66,0,0,1-6.1,5.06,22.79,22.79,0,0,1-9.3,1.76H307.9v9.46h-13v-38.5h18.53A22.79,22.79,0,0,1,322.75,669.82Zm-6.16,16.09a4.86,4.86,0,0,0,0-6.66,5.77,5.77,0,0,0-4-1.18H307.9v9h4.73A5.77,5.77,0,0,0,316.59,685.91Z" transform="translate(-190.3 -121.5)"/><path class="cls-1" d="M340.81,706.37a25.13,25.13,0,0,1-7.45-2.89l4.18-9.46a26.73,26.73,0,0,0,6.16,2.56,24.15,24.15,0,0,0,6.55,1,10.14,10.14,0,0,0,3.85-.52,1.67,1.67,0,0,0,1.15-1.57c0-.81-.5-1.41-1.51-1.82a33.45,33.45,0,0,0-5-1.32,56.73,56.73,0,0,1-7.42-2,12.67,12.67,0,0,1-5.17-3.52,9.53,9.53,0,0,1-2.2-6.63,11.39,11.39,0,0,1,2-6.6,13.47,13.47,0,0,1,6.08-4.68,25.37,25.37,0,0,1,9.82-1.7,35.53,35.53,0,0,1,7.78.85,24.2,24.2,0,0,1,6.74,2.51l-3.91,9.4a23.83,23.83,0,0,0-10.72-2.86q-5,0-5,2.42c0,.77.5,1.35,1.49,1.73a30.82,30.82,0,0,0,4.89,1.24,50,50,0,0,1,7.43,1.9,13,13,0,0,1,5.25,3.49,9.38,9.38,0,0,1,2.23,6.6,11.26,11.26,0,0,1-2,6.57,13.75,13.75,0,0,1-6.08,4.68,24.92,24.92,0,0,1-9.81,1.73A40.76,40.76,0,0,1,340.81,706.37Z" transform="translate(-190.3 -121.5)"/><path class="cls-1" d="M386.49,668.06h14.85l-2.48,23.76H389Zm2.2,37.12a6.18,6.18,0,0,1-2-4.67,6,6,0,0,1,2-4.65,8.34,8.34,0,0,1,10.45,0,6,6,0,0,1,2,4.65,6.17,6.17,0,0,1-2,4.67,8,8,0,0,1-10.45,0Z" transform="translate(-190.3 -121.5)"/><path class="cls-1" d="M454.19,696.77v9.79h-32v-38.5h31.3v9.79H434.94v4.51h16.28v9.35H434.94v5.06Z" transform="translate(-190.3 -121.5)"/><path class="cls-1" d="M475.7,696.88h-3.52v9.68h-13v-38.5h18.53a22.79,22.79,0,0,1,9.3,1.76,13.66,13.66,0,0,1,6.1,5.06,14.85,14.85,0,0,1,.28,14.91,13.28,13.28,0,0,1-5.39,4.89l8.08,11.88H482.24Zm5.17-17.63a5.77,5.77,0,0,0-4-1.18h-4.73v9h4.73a5.77,5.77,0,0,0,4-1.18,4.86,4.86,0,0,0,0-6.66Z" transform="translate(-190.3 -121.5)"/><path class="cls-1" d="M516.67,696.88h-3.52v9.68h-13v-38.5h18.54a22.78,22.78,0,0,1,9.29,1.76,14.23,14.23,0,0,1,6.38,20,13.15,13.15,0,0,1-5.39,4.89l8.09,11.88H523.22Zm5.17-17.63a5.77,5.77,0,0,0-4-1.18h-4.73v9h4.73a5.77,5.77,0,0,0,4-1.18,4.86,4.86,0,0,0,0-6.66Z" transform="translate(-190.3 -121.5)"/><path class="cls-1" d="M573.16,696.77v9.79h-32v-38.5h31.29v9.79H553.91v4.51h16.28v9.35H553.91v5.06Z" transform="translate(-190.3 -121.5)"/><path class="cls-1" d="M582.78,702.65q-4.95-4.78-4.95-13.42V668.06h13v20.79c0,2.82.5,4.88,1.51,6.16a5.94,5.94,0,0,0,8.75,0c1-1.28,1.51-3.34,1.51-6.16V668.06h12.76v21.17q0,8.64-5,13.42t-13.8,4.79Q587.72,707.44,582.78,702.65Z" transform="translate(-190.3 -121.5)"/><path class="cls-1" d="M637.78,696.88h-3.52v9.68h-13v-38.5h18.54a22.78,22.78,0,0,1,9.29,1.76,14.23,14.23,0,0,1,6.38,20,13.22,13.22,0,0,1-5.39,4.89l8.09,11.88H644.33ZM643,679.25a5.77,5.77,0,0,0-4-1.18h-4.73v9H639a5.77,5.77,0,0,0,4-1.18,4.86,4.86,0,0,0,0-6.66Z" transform="translate(-190.3 -121.5)"/><path class="cls-1" d="M714.56,700h-5.11v6.6h-12.6V700h-20v-8.25l16.34-23.65h13.31L692,689.89h5.23V684h12.21v5.88h5.11Z" transform="translate(-190.3 -121.5)"/><path class="cls-1" d="M724.76,705.05a16.35,16.35,0,0,1-6.16-6.93,27.32,27.32,0,0,1,0-21.62,16.35,16.35,0,0,1,6.16-6.93,18.33,18.33,0,0,1,18.1,0A16.35,16.35,0,0,1,749,676.5a27.43,27.43,0,0,1,0,21.62,16.35,16.35,0,0,1-6.16,6.93,18.33,18.33,0,0,1-18.1,0Zm13.45-17.74q0-9.73-4.4-9.74t-4.4,9.74q0,9.74,4.4,9.73T738.21,687.31Z" transform="translate(-190.3 -121.5)"/><path class="cls-1" d="M791.78,700h-5.12v6.6H774.07V700h-20v-8.25l16.34-23.65h13.31l-14.52,21.83h5.22V684h12.21v5.88h5.12Z" transform="translate(-190.3 -121.5)"/><ellipse class="cls-2" cx="309.22" cy="468.14" rx="309.22" ry="35.3"/><rect class="cls-3" x="205.8" y="579.31" width="9.95" height="29.85" rx="1.25" ry="1.25" transform="translate(278.57 -102.52) rotate(43.69)"/><polygon class="cls-4" points="10.99 468.43 443.71 3.99 458.27 17.56 25.54 482 11.96 480.21 10.99 468.43"/><polyline class="cls-3" points="18.21 480.98 449.09 20.76 453.6 24.73 25.47 482.07"/><rect class="cls-4" x="616.01" y="122.63" width="25.2" height="46.43" rx="2.75" ry="2.75" transform="translate(84.55 -515.35) rotate(43.69)"/><path class="cls-3" d="M645.85,130.21l-2.4-2.3A10.9,10.9,0,0,0,634.6,125c.11.1.24.17.35.27l2.4,2.29a11,11,0,0,1,.35,15.48l-17,17.74c-1.82,1.91-8.61-1.21-11-.92,6,7.13,12.75,10.66,16.8,6.42l19.7-20.62A11,11,0,0,0,645.85,130.21Z" transform="translate(-190.3 -121.5)"/><ellipse class="cls-5" cx="634.6" cy="131.34" rx="2.91" ry="5.36" transform="matrix(0.79, -0.61, 0.61, 0.79, -139.77, 290.61)"/><path class="cls-6" d="M410.49,291.91s-35.31,7.24-51.08,32.76c0,0-42.05-29.28-49.21-62.23-4.59-21.11,71.35-38.61,91.21-33.9Z" transform="translate(-190.3 -121.5)"/><path class="cls-7" d="M411.68,292.74l-1,.2c-.35.08-35.05,7.47-50.39,32.29l-.59.95-.92-.64c-1.73-1.21-42.47-29.9-49.64-62.88-.85-3.91.71-7.87,4.65-11.73,16.34-16,70.81-27.46,87.84-23.42l.71.17Zm-48.82,25.32c15.44-18.66,41.14-25.68,46.44-27l-8.83-61.67c-17-3.38-69.79,7.93-85.17,23-3.4,3.33-4.76,6.61-4.07,9.77,6.42,29.52,41.77,56.47,47.88,60.94A54.73,54.73,0,0,1,362.86,318.06Z" transform="translate(-190.3 -121.5)"/><g class="cls-8"><path class="cls-9" d="M358.8,299.73c24.07-2.64,30.95-2.16,35.66.61l53.05-38c-9.88-14.28-52.33-37.62-73.88-37.49-4.76,0-13.47,5-15.18,7.76-15.94,25.66-7.16,60.75-5.89,68.22A54.18,54.18,0,0,1,358.8,299.73Z" transform="translate(-190.3 -121.5)"/></g><path class="cls-6" d="M413.58,303.94s-28.08-22.59-57.8-18.47c0,0-4.25-51.07,16.58-77.59,13.33-17,75.23,30.37,84.26,48.67Z" transform="translate(-190.3 -121.5)"/><path class="cls-7" d="M413.7,305.39l-.78-.62c-.28-.23-28.09-22.25-57-18.25l-1.1.15-.1-1.12c-.17-2.1-4-51.78,16.8-78.32,2.48-3.16,6.52-4.47,12-3.9,22.76,2.37,66.29,37,74,52.75l.32.65Zm-50.62-21.48c24.21,0,46,15.33,50.38,18.6l41.88-46.13c-8.26-15.27-50.6-48.71-72-50.94-4.73-.49-8.13.55-10.12,3.09-18.65,23.76-16.88,68.18-16.43,75.74A56.19,56.19,0,0,1,363.08,283.91Z" transform="translate(-190.3 -121.5)"/><path class="cls-10" d="M383.31,205.44s50.68,28.18,13.23,89.37l17,9.13,16.65-73.14S417.34,214,383.31,205.44Z" transform="translate(-190.3 -121.5)"/><path class="cls-3" d="M588.16,313.28s12.52,51.93,23.33,80.87,43.66,92.64,12.44,133.49c0,0-14.15,37.13,22.27,14.14s11.94-96.45-14.8-159.5c-22.27-62.72-22.19-93.48-47.22-89S588.16,313.28,588.16,313.28Z" transform="translate(-190.3 -121.5)"/><path class="cls-11" d="M579.06,292.51s22.07-12.33,31.38,16.83,30.07,86.66,32.63,95.19,54.62,121.3-2.28,140.58c-17.64,5.57,4-3.33,8.82-9.64S669,511,659,475.75s-48.57-154.08-51.31-163.28-12.13-22.93-33.18-17.36S579.06,292.51,579.06,292.51Z" transform="translate(-190.3 -121.5)"/><path class="cls-11" d="M392.47,274.65S396,288.8,376.29,315.1s-38.42,46-38.42,85.95S348,494.59,340.4,515.32s4.85,32.75,14.3,36.09,67.52,27.93,177.79,7.29c0,0,63.32,38.4,92.86-17.92,0,0-12.41-97.7-32.14-102.28,0,0-42.48-98.63-34.39-141.61Z" transform="translate(-190.3 -121.5)"/><polygon class="cls-12" points="246.38 230.4 196.47 224.56 204.46 195.02 254.36 200.86 246.38 230.4"/><path class="cls-4" d="M584.12,240.48s9.37,1,14.49,65.07,28.35,159,38.58,192.07,14.92,68.07-13.54,77.16-91.23-299.6-74.76-322S584.12,240.48,584.12,240.48Z" transform="translate(-190.3 -121.5)"/><path class="cls-13" d="M627.44,573.08a108.93,108.93,0,0,0-2.39-26c0-2.39.05-4.78.08-7.17,9.27-2.35,14.69-17,15.57-28.19,1,2.45,1.93,4.91,2.89,7.36,1.44,8.44.54,20.86.13,29.88C641.58,561.71,635.46,568.75,627.44,573.08Z" transform="translate(-190.3 -121.5)"/><path class="cls-14" d="M387.22,297.34s20.17.06,26.24,13-4.55,44-15.17,47.78S393,374,403.6,371.72s23.51-26.54,23.51-37.16,18.2-15.93,28.06-10.62,114.52,1.52,138-42.47c21.77-40.72-225.94-99.24-201.57-11.14.83,3,1.72,7.36,1.24,9.54A84.74,84.74,0,0,1,387.22,297.34Z" transform="translate(-190.3 -121.5)"/><path class="cls-4" d="M344.44,544.26s80.39,32.24,188.09,13.28c0,0,55.4,14.44,92.73-10.79,0,0,3.3,17.54,2.88,21.56s-20.53,41.56-82,20.7C538.22,587.11,394.88,623.14,344.44,544.26Z" transform="translate(-190.3 -121.5)"/><path class="cls-4" d="M322.75,501s-.71,15.69,21.87,27.37,89.82,27.36,100.94,17.75,33.88-21.24,30.84-34.38,5.57-86-6.06-94.55S322.75,501,322.75,501Z" transform="translate(-190.3 -121.5)"/><path class="cls-11" d="M326.74,437s-20.63,23.51-4,64.09c0,0,21.69,17.82,60.12,22.37s54.6,6.57,53.09-8.09-.51-46-11.63-70.28S326.74,437,326.74,437Z" transform="translate(-190.3 -121.5)"/><path class="cls-15" d="M462.72,446.66l-3-.88c0-1.38.09-2.77.14-4.15C461.68,442.81,462.9,444.33,462.72,446.66Z" transform="translate(-190.3 -121.5)"/><path class="cls-15" d="M388.31,466.31,387,463.44Z" transform="translate(-190.3 -121.5)"/><path class="cls-16" d="M345.37,400.79s50.52,12.57,124.91,18.55c10.68,1.43,4.79,28.59-18.81,36.5s-29.17,4.37-33.21,9.93-21.74,14.15-28.82-1.52-20.73-11.63-25.28-9.61-22.25,16.69-29.33-4.55C328.77,438,309.4,440,345.37,400.79Z" transform="translate(-190.3 -121.5)"/><path class="cls-12" d="M342.34,397.76s50.52,12.56,124.9,18.54c10.68,1.43,4.8,28.59-18.81,36.5s-29.16,4.37-33.2,9.93-21.75,14.16-28.82-1.51-20.73-11.63-25.28-9.61-22.25,16.69-29.33-4.55C325.73,434.92,306.36,436.94,342.34,397.76Z" transform="translate(-190.3 -121.5)"/><ellipse class="cls-17" cx="344.39" cy="449.31" rx="5.03" ry="6.83" transform="translate(-377.18 523.36) rotate(-72.74)"/><ellipse class="cls-17" cx="401.02" cy="459.07" rx="5.03" ry="6.83" transform="translate(-346.67 584.32) rotate(-72.74)"/><path class="cls-15" d="M424.65,293.43c-2.08-2.07-.54-2.64,1.28-3.1A2.54,2.54,0,0,1,424.65,293.43Z" transform="translate(-190.3 -121.5)"/><path class="cls-6" d="M455.17,299.67s19,13.66,25,23.52c0,0,26.54-6.83,44-26.55S455.17,299.67,455.17,299.67Z" transform="translate(-190.3 -121.5)"/><circle class="cls-18" cx="249.32" cy="153.91" r="4.17"/><circle class="cls-18" cx="241.36" cy="165.66" r="4.17"/><path class="cls-16" d="M574.62,418.75c-7.58-6.83-2.65-9.11-1.9-20.86s-8.53-13.32-14.41-11.38-14.41,1.9-28.82,0-19,10.24-16.72,14.54,6.11,6.32-2.24,16.94c-6.37,8.11-5.18,44.36-4.26,61-.17,34.19,7.3,81.54,7.3,81.54,13.65,29.2,32.21,28.06,32.21,28.06C534,581,537,564.77,537,564.77c-12.06-26.4-16.26-61.32-17.64-86.63,34.26-24,61.68-32.06,61.68-32.06S582.2,425.57,574.62,418.75Z" transform="translate(-190.3 -121.5)"/><path class="cls-12" d="M518.94,445s-4.61-24,3.73-34.6,4.48-12.64,2.24-16.93,2.31-16.44,16.72-14.54,22.94,1.95,28.82,0,15.17-.38,14.41,11.37-5.69,14,1.89,20.86,6.46,27.34,6.46,27.34S589.31,472.6,518.94,445Z" transform="translate(-190.3 -121.5)"/><path class="cls-5" d="M587,445.65c-4.58,1.74-9.23,5.35-14.19,5.57-1.23-9.71.38-22.67-2.23-32.27-.46-1.69-.49-3.62-1.35-5-3.12-5.11-3.2-10.05-1-15.65,2.46-6.23.07-12.31-2.2-18.21,1.9-.12,3.8-1.76,5.69-1.89,7.58,6.43,9,12.69,6.13,22-.63,2-2,3.89-.28,6.32C585.79,417.9,586.64,432.28,587,445.65Z" transform="translate(-190.3 -121.5)"/><path class="cls-17" d="M575.27,366.39a2,2,0,0,0,0-.55,1.94,1.94,0,0,0-.12-.53l0-.23h-.08c-1.57-3.09-11.17-4.85-22.6-4s-20.67,4-21.76,7.31h-.08l0,.23a1.71,1.71,0,0,0,0,.55,2,2,0,0,0,.12.54l.69,9.18a2.09,2.09,0,0,0-.05.55c.27,3.55,10.49,5.68,22.83,4.76s22.12-4.55,21.86-8.09a1.94,1.94,0,0,0-.13-.54Z" transform="translate(-190.3 -121.5)"/><ellipse class="cls-19" cx="553.27" cy="367.75" rx="19.08" ry="5.15" transform="translate(-216.16 -79.26) rotate(-4.27)"/><path class="cls-6" d="M584,292.27s19.77,7.06,8.47,22.6c0,0-21.18-12.71-39.54-8.48Z" transform="translate(-190.3 -121.5)"/><path class="cls-12" d="M405.16,294.27s-22.22-25.21-15.68-44.79,21.7-33.23,56.59-34,31.85,6.83,52.33,10.62,48.54-8.34,68.26-5.31,52.32,44.64,16.68,66-50.81,21.24-116,17.44c-46.26-4.55-35.64,5.31-39.43,12.9s-7.65,42.23-33.37,49.29c-19.34,5.31-9.7-10.71,2-13.69S425.68,320.73,405.16,294.27Z" transform="translate(-190.3 -121.5)"/><path class="cls-4" d="M451.38,269.34s-13.65-6.83-16.69-1.52-22,27.3-23.51,52.33c-1.09,18.06-3,28.06-19.72,33.37s-9.86,18.2.76,15.93,30.34-19.72,34.89-45.51S437.73,290.57,451.38,269.34Z" transform="translate(-190.3 -121.5)"/><path class="cls-14" d="M433.56,323.94l-29.83-3.16a4.23,4.23,0,0,0-4.22,4.21l-4.21,16.15a4.23,4.23,0,0,0,4.21,4.21l11,1.55a4.35,4.35,0,0,0,0,.72,9.49,9.49,0,0,0,.3,2.33,8.16,8.16,0,0,0,1,2.45l.45.07a8.07,8.07,0,0,0,1.73-2,9.77,9.77,0,0,0,1-2.1,4,4,0,0,0,.23-.82l14.17,2a4.22,4.22,0,0,0,4.21-4.21l4.21-17.2A4.22,4.22,0,0,0,433.56,323.94Zm-8.12,20.4L415.27,343c0-1.23.07-2.46.06-3.69-.06-1.53,0-3.05-.15-4.58l-.45-.08c-.61,1.42-1.1,2.85-1.65,4.28-.43,1.21-.82,2.42-1.19,3.63l-7.18-.93a2.82,2.82,0,0,1-2.93-2.68l.63-2.21,3,.57a4.3,4.3,0,1,0,1.6-8.45l-2.28-.43a2.85,2.85,0,0,1,2.9-2.45l20.74,2a2.81,2.81,0,0,1,2.92,2.68l-.53,2a4.36,4.36,0,0,0-.79-.2l-4.52-.64a4.3,4.3,0,0,0-1.2,8.51l4.29.61-.17.65A2.83,2.83,0,0,1,425.44,344.34Z" transform="translate(-190.3 -121.5)"/><path class="cls-3" d="M432,322.42l-29.83-3.16a4.22,4.22,0,0,0-4.21,4.21l-4.22,16.15a4.23,4.23,0,0,0,4.22,4.21l11,1.55a3.54,3.54,0,0,0,0,.73,9.89,9.89,0,0,0,.29,2.32,8.1,8.1,0,0,0,1,2.45l.45.07a8,8,0,0,0,1.72-2,9.61,9.61,0,0,0,1-2.11,4.55,4.55,0,0,0,.24-.82l14.16,2a4.22,4.22,0,0,0,4.21-4.21l4.22-17.2A4.23,4.23,0,0,0,432,322.42Zm-8.12,20.4-10.17-1.32c0-1.22.07-2.45.06-3.69-.05-1.53,0-3-.15-4.58l-.45-.08c-.61,1.42-1.09,2.86-1.64,4.28-.43,1.21-.82,2.42-1.2,3.64l-7.18-.93a2.83,2.83,0,0,1-2.93-2.69l.63-2.21,3,.57a4.3,4.3,0,0,0,1.6-8.45l-2.28-.43a2.83,2.83,0,0,1,2.9-2.44l20.73,2a2.83,2.83,0,0,1,2.93,2.68l-.54,2a4.16,4.16,0,0,0-.79-.2l-4.51-.63a4.3,4.3,0,1,0-1.21,8.51l4.3.6-.18.66A2.83,2.83,0,0,1,423.92,342.82Z" transform="translate(-190.3 -121.5)"/><path class="cls-20" d="M431.52,306.16c3.21-2.13,5.48-4,9.13-5.2a90.91,90.91,0,0,1,11.26-2.83,130.5,130.5,0,0,1,23.08-2,188.13,188.13,0,0,1,23,1.51,140.62,140.62,0,0,0,21.13.85,155.53,155.53,0,0,0,41.94-7.23A122,122,0,0,0,580.94,283c6.35-3.39,12.44-7.38,16.81-13.66a26.07,26.07,0,0,1-4.83,10.59,30.87,30.87,0,0,1-3.76,4.58,47.31,47.31,0,0,1-4.22,4.16,87.26,87.26,0,0,1-19.71,12.88,114.11,114.11,0,0,1-45.64,11.05,112.86,112.86,0,0,1-23.7-1.77c-7.2-1.32-14.39-2.69-21.64-3.66s-14.52-1.78-21.86-2.17A93.75,93.75,0,0,0,431.52,306.16Z" transform="translate(-190.3 -121.5)"/><path class="cls-11" d="M518.44,449.89c.16-1.63.33-3.26.5-4.89,10.46,2.43,20.06,7.86,31,8.61,13.16.9,25.79-.41,37.1-8,3.36-1.26,5.68-3.41,6.17-7.15,8.21,3,10.18,11.08,12.68,17.66,9.21,24.16,13.88,49.53,17.68,75,.48,3.21,1.18,6.39,1.78,9.58l-.09,6c-9.58,16.49-25.29,22.61-43,25.91-16.45,3.07-31.45.14-45.35-9-1.78-1.38-1.41-4.71-4.46-4.95-3.06-10.85-8.23-21-10.54-32.12-5.19-25-8.17-50.05-4.6-75.54" transform="translate(-190.3 -121.5)"/><path class="cls-4" d="M579,477.11c1.28,5.73,4.13,10.81,6.6,16,.64,1.35,1.73,3.17.13,4.06-2.17,1.2-3-1-3.71-2.56-3.74-7.93-7.43-15.88-11.18-23.91-3.41,6-1.34,12.83-3.41,18.92-.52,1.53-.4,4.09-2.94,3.52s-1.33-2.64-1.08-4.33c.75-5.08,1.36-10.18,2.15-16.27-6.27,3.86-11.87,12.54-17.87,4.56-4.32-5.73,4.14-8.65,7.7-12.45-.78-3.07-5,.13-5.76-3.22,1.71-2.11,4.17-1.22,6.2-1.08,4.16.28,8,.56,12.19-1.23,4.62-2,23.6,5.89,26.56,9.94a6.67,6.67,0,0,1,.81,6.47c-.88,2.56-3.24,2.69-5.58,3-3.7.49-6.78-1.94-10.35-1.85l-.93-1.93c-.19.16-.56.41-.54.47C578.25,475.89,578.62,476.5,579,477.11Zm-3.84-12.51c3.55,5.78,7.7,8,11.58,10.52a3,3,0,0,0,4.08-.78c1-1.45.33-2.95-.82-4m-27.33-5.45c-3.64,2.37-7.35,4.64-10.88,7.17a2.64,2.64,0,0,0-.71,4c1.22,1.45,2.85,1,4-.07C558.19,472.92,561.93,470.37,562.63,464.84Z" transform="translate(-190.3 -121.5)"/><path class="cls-4" d="M579,477.11c-.34-.61-.71-1.22-1-1.85,0-.06.35-.31.54-.47l.93,1.93Z" transform="translate(-190.3 -121.5)"/><path class="cls-4" d="M518.08,449.89c.5,0,1-.07,1.49-.07,3.8,0,5.57,2.84,7.45,5.44.15.22-.55,1.54-1,1.6-3.3.51-4.58-2.47-6.67-4.06-.78-.61-1.6-1.17-2.39-1.76Z" transform="translate(-190.3 -121.5)"/><path class="cls-4" d="M592.68,455c-1,1.3-1.25,1.83-1.63,2-2.84,1.39-5.63,3-9,2.6-.29,0-.79-1.56-.6-1.72C584.49,455.36,587.81,453.78,592.68,455Z" transform="translate(-190.3 -121.5)"/><path class="cls-4" d="M543.28,460.25c-3.8,2.15-7.26,1.69-11.4-1.44C536.67,456.08,539.87,459.39,543.28,460.25Z" transform="translate(-190.3 -121.5)"/><path class="cls-4" d="M602.68,449.72c.18,3.13-.08,3.34-4.07,3.22C598.37,449,600.71,450.73,602.68,449.72Z" transform="translate(-190.3 -121.5)"/><path class="cls-21" d="M579,596s101.63,23.18,129.31,6.74,11.86-30.23,3.46-32S608,572.47,584,552.44,547.29,595.69,579,596Z" transform="translate(-190.3 -121.5)"/><path class="cls-19" d="M577.17,554.32s18.05-46,61.32-44.19,70.93,20.24,73.3,60.6S596.76,581.72,577.17,554.32Z" transform="translate(-190.3 -121.5)"/><path class="cls-17" d="M654.31,511.47s34.84,34.9-.71,76.57c0,0,55,16.14,58.19-17.31C711.79,570.73,715.89,519.45,654.31,511.47Z" transform="translate(-190.3 -121.5)"/><ellipse class="cls-21" cx="650.12" cy="503.69" rx="23.65" ry="22.59" transform="translate(-246.5 803.47) rotate(-68.58)"/><path class="cls-22" d="M653.6,588s12.95,3.06,14.39,9.69-5,10.17-5,10.17,54.42,8.2,60.85-23.65c2.91-10-12.05-13.52-12.05-13.52S714.18,603.71,653.6,588Z" transform="translate(-190.3 -121.5)"/><path class="cls-22" d="M656.62,504.29c2.41,8-3.81,21.2-3.81,21.2-.33.3-.67.58-1,.86a24.27,24.27,0,0,0,13.78-6.55c9.45-9,10.14-23.64,1.53-32.67-8.32-8.72-22.25-9-31.71-.9C635.41,486.23,650.87,485.15,656.62,504.29Z" transform="translate(-190.3 -121.5)"/><path class="cls-6" d="M330.64,485.34s-20,74.59-74.69,87.82c-23.86,3,24.72,55,39.81,66.49s54.83-3.56,83.54-31,60.63-67.61,43.12-79.71S336.39,467.53,330.64,485.34Z" transform="translate(-190.3 -121.5)"/><path class="cls-23" d="M311.15,527.78s55.07,40.48,114.37,20.71c5.18-15.06-1.41-18.35-9.88-25.41s-56.48-38.13-77-42.36c-5.65-2.83-9.88,5.65-12,12S325.27,506.6,311.15,527.78Z" transform="translate(-190.3 -121.5)"/><path class="cls-7" d="M309.84,644.63c-6,0-11-1.32-14.72-4.14-11.27-8.58-50.37-48.47-46.42-63.14.8-3,3.2-4.74,7.12-5.24,53.34-12.92,73.6-86.3,73.8-87V485a6.07,6.07,0,0,1,4.05-4.07c13-4.39,52.41,21.37,85.28,44.28l4.06,2.83a12.35,12.35,0,0,1,5.4,9.63c1.38,17.45-24.09,48.49-48.38,71.72C357.4,631,329,644.63,309.84,644.63Zm21.81-159c-.49,1.83-21.19,75.42-75.45,88.55-3.15.41-4.89,1.61-5.46,3.71-3.41,12.69,33.22,51.43,45.66,60.91,14.52,11.05,53.68-3.7,82.17-30.94,22.85-21.85,49.06-53.3,47.74-70a10.19,10.19,0,0,0-4.49-8.06L417.75,527c-19.07-13.29-69.76-48.63-83.4-44A4,4,0,0,0,331.65,485.64Z" transform="translate(-190.3 -121.5)"/><path class="cls-24" d="M357.91,526.19a9.58,9.58,0,0,1-.39-5.14,14.86,14.86,0,0,1,2.31-5.6,15,15,0,0,1,4.19-4.37,9.8,9.8,0,0,1,4.86-1.72,7.47,7.47,0,0,1,4.6,1.24,6.75,6.75,0,0,1,2.83,3.61,8.39,8.39,0,0,1,0,5l-4.44.33c.43-2.16,0-3.67-1.29-4.51a3.5,3.5,0,0,0-3.38-.22,9.38,9.38,0,0,0-5,7.59,3.5,3.5,0,0,0,1.57,3q2,1.27,4.65-.64l1.46,4.23a8.44,8.44,0,0,1-4.54,2,6.82,6.82,0,0,1-4.46-1.12A7.48,7.48,0,0,1,357.91,526.19Z" transform="translate(-190.3 -121.5)"/><path class="cls-24" d="M394.3,524.58l-17.79,15.11-3.95-2.57,6.69-22.36,3.95,2.58-4.67,15.13,12.09-10.29Z" transform="translate(-190.3 -121.5)"/><path class="cls-25" d="M385.7,570.46c-6.81-10.85-14.39-13.26-23.18-16.05-10.06-3.2-21.47-6.82-33.86-22.94l4.48-3.45c11.31,14.72,21.37,17.92,31.09,21,9.44,3,18.35,5.83,26.25,18.43Z" transform="translate(-190.3 -121.5)"/><path class="cls-25" d="M357.1,572.42c-4-6.78-8.29-8.22-13.72-10-6.37-2.15-13.59-4.58-21.44-15.4l4.58-3.32c6.78,9.37,12.82,11.4,18.66,13.37S356.89,561,362,569.54Z" transform="translate(-190.3 -121.5)"/><path class="cls-25" d="M355.26,589.77c-5.1-8.69-10.52-10.53-17.39-12.86-7.8-2.65-16.64-5.65-26.24-19l4.59-3.29c8.54,11.88,16.13,14.46,23.47,16.95,7,2.39,14.28,4.85,20.44,15.35Z" transform="translate(-190.3 -121.5)"/><path class="cls-25" d="M318.6,580.81c-1.3-2.28-2.53-2.72-4.58-3.44a16.64,16.64,0,0,1-9.4-7l4.63-3.23a11.3,11.3,0,0,0,6.64,4.95c2.47.86,5.28,1.85,7.62,6Z" transform="translate(-190.3 -121.5)"/><path class="cls-24" d="M289.3,591.84,285,587.19l4.39-8.76S295.6,585.48,289.3,591.84Z" transform="translate(-190.3 -121.5)"/><path class="cls-24" d="M301.09,601.47l-1.86,6.62s11.88-2.74,9.12-13.38Z" transform="translate(-190.3 -121.5)"/><path class="cls-24" d="M316.62,611.14,321,615.8l-4.78,7.11s9.89,2.12,12-7.06S320.59,608.55,316.62,611.14Z" transform="translate(-190.3 -121.5)"/><path class="cls-25" d="M281.42,596.81a6.3,6.3,0,0,1-4.75-1.91c-1.5-1.61-1.95-3.94-1.27-6.58a14.49,14.49,0,0,1,4.27-6.82h0a14.43,14.43,0,0,1,7.11-3.77,6.83,6.83,0,0,1,6.47,1.74c3,3.19,1.66,9.08-3,13.41a14.57,14.57,0,0,1-7.11,3.76A9.64,9.64,0,0,1,281.42,596.81Zm7.07-16.42a6.77,6.77,0,0,0-1.21.12,11.69,11.69,0,0,0-5.69,3h0a11.8,11.8,0,0,0-3.46,5.46c-.24,1-.5,2.77.61,4s2.92,1.06,3.9.89a11.71,11.71,0,0,0,5.69-3.06c3.38-3.14,4.68-7.45,2.85-9.42A3.57,3.57,0,0,0,288.49,580.39Z" transform="translate(-190.3 -121.5)"/><path class="cls-25" d="M297.58,611.1a6.38,6.38,0,0,1-4.78-1.91c-3-3.19-1.66-9.08,3-13.41h0c4.65-4.33,10.62-5.22,13.59-2s1.65,9.08-3,13.41A13.52,13.52,0,0,1,297.58,611.1Zm.14-13.25c-3.38,3.14-4.68,7.45-2.85,9.41s6.22,1,9.59-2.17,4.68-7.45,2.85-9.41-6.22-1-9.59,2.17Z" transform="translate(-190.3 -121.5)"/><path class="cls-25" d="M317.41,625.42a6.28,6.28,0,0,1-4.75-1.9c-3-3.19-1.65-9.08,3-13.41a14.6,14.6,0,0,1,7.11-3.77c2.69-.49,5,.13,6.48,1.74,3,3.19,1.65,9.08-3,13.41a14.6,14.6,0,0,1-7.11,3.77A9.6,9.6,0,0,1,317.41,625.42Zm.17-13.24c-3.38,3.14-4.68,7.45-2.85,9.41,1.1,1.19,2.92,1.06,3.9.89a11.63,11.63,0,0,0,5.69-3.06c3.38-3.14,4.68-7.45,2.85-9.41-1.1-1.19-2.92-1.06-3.9-.89a11.63,11.63,0,0,0-5.69,3.06Z" transform="translate(-190.3 -121.5)"/><path class="cls-1" d="M272.13,738.76a13.21,13.21,0,0,1,5.81,4.84,14.56,14.56,0,0,1,0,14.83,13,13,0,0,1-5.81,4.84,21.65,21.65,0,0,1-8.88,1.67H255.5v10.62h-8.91v-38.5h16.66A21.48,21.48,0,0,1,272.13,738.76ZM268.86,756A6,6,0,0,0,271,751a6.12,6.12,0,0,0-2.09-5,9.38,9.38,0,0,0-6.1-1.73H255.5v13.36h7.26C265.43,757.68,267.47,757.11,268.86,756Z" transform="translate(-190.3 -121.5)"/><path class="cls-1" d="M307.91,748.8q3.69,3.27,3.69,9.87v16.89h-8v-3.68q-2.43,4.13-9,4.12a13.87,13.87,0,0,1-5.92-1.16,8.78,8.78,0,0,1-3.82-3.19,8.26,8.26,0,0,1-1.32-4.61,7.74,7.74,0,0,1,3.11-6.5q3.11-2.35,9.6-2.36H303a5.47,5.47,0,0,0-1.71-4.32,7.5,7.5,0,0,0-5.11-1.51,15.07,15.07,0,0,0-4.65.74,12.47,12.47,0,0,0-3.88,2l-3.08-6a18.89,18.89,0,0,1,5.8-2.64,26.19,26.19,0,0,1,7-.93Q304.22,745.53,307.91,748.8Zm-7.31,20.41a5.62,5.62,0,0,0,2.42-3v-3h-5.89q-5.28,0-5.28,3.47a3.08,3.08,0,0,0,1.29,2.61,5.84,5.84,0,0,0,3.55,1A7.47,7.47,0,0,0,300.6,769.21Z" transform="translate(-190.3 -121.5)"/><path class="cls-1" d="M350.21,746v24.64q0,8.14-4.24,12.1t-12.37,4a31.19,31.19,0,0,1-8.14-1,17.78,17.78,0,0,1-6.38-3l3.41-6.16a14,14,0,0,0,4.73,2.45,18.92,18.92,0,0,0,5.72.9c3,0,5.16-.66,6.57-2s2.12-3.37,2.12-6.08v-1.27q-3.36,3.69-9.35,3.69a15.75,15.75,0,0,1-7.46-1.79,13.66,13.66,0,0,1-5.36-5,15.12,15.12,0,0,1,0-15,13.66,13.66,0,0,1,5.36-5,15.75,15.75,0,0,1,7.46-1.79q6.44,0,9.79,4.23V746Zm-10.65,19.11a7.41,7.41,0,0,0,0-10.5,7.9,7.9,0,0,0-5.58-2,8,8,0,0,0-5.61,2,7.36,7.36,0,0,0,0,10.5,8,8,0,0,0,5.61,2A7.9,7.9,0,0,0,339.56,765.08Z" transform="translate(-190.3 -121.5)"/><path class="cls-1" d="M387,763.18H364.62a6.92,6.92,0,0,0,2.86,4.35,9.48,9.48,0,0,0,5.61,1.6,11.27,11.27,0,0,0,4.09-.69,10,10,0,0,0,3.33-2.18l4.57,5Q380.9,776,372.87,776a19.36,19.36,0,0,1-8.86-2,14.27,14.27,0,0,1-5.94-5.42,15,15,0,0,1-2.09-7.87,15.16,15.16,0,0,1,2.06-7.83,14.5,14.5,0,0,1,5.67-5.45,16.66,16.66,0,0,1,8.06-2,16.47,16.47,0,0,1,7.86,1.87,13.65,13.65,0,0,1,5.53,5.36,16,16,0,0,1,2,8.12C387.17,761,387.11,761.75,387,763.18Zm-20.07-9.51a7,7,0,0,0-2.42,4.51h14.57a7.08,7.08,0,0,0-2.42-4.48,7.22,7.22,0,0,0-4.84-1.68A7.38,7.38,0,0,0,366.93,753.67Z" transform="translate(-190.3 -121.5)"/><path class="cls-1" d="M435.32,748.83q3.38,3.3,3.38,9.79v16.94h-8.58V759.94q0-3.53-1.54-5.25a5.64,5.64,0,0,0-4.46-1.73,6.83,6.83,0,0,0-5.17,2q-1.92,2-1.92,6v14.63h-8.58V746h8.19v3.46a11.48,11.48,0,0,1,4.24-2.88,14.73,14.73,0,0,1,5.55-1A12.2,12.2,0,0,1,435.32,748.83Z" transform="translate(-190.3 -121.5)"/><path class="cls-1" d="M452.48,774.05a14.54,14.54,0,0,1-5.81-5.42,15.84,15.84,0,0,1,0-15.73,14.54,14.54,0,0,1,5.81-5.42,18.94,18.94,0,0,1,16.74,0A14.52,14.52,0,0,1,475,752.9a15.84,15.84,0,0,1,0,15.73,14.52,14.52,0,0,1-5.78,5.42,18.94,18.94,0,0,1-16.74,0Zm13.8-7.32a9.45,9.45,0,0,0,0-11.93,7.13,7.13,0,0,0-5.42-2.23,7.21,7.21,0,0,0-5.44,2.23,9.35,9.35,0,0,0,0,11.93,7.21,7.21,0,0,0,5.44,2.23A7.13,7.13,0,0,0,466.28,766.73Z" transform="translate(-190.3 -121.5)"/><path class="cls-1" d="M509.68,748.83q3.38,3.3,3.38,9.79v16.94h-8.58V759.94a7.73,7.73,0,0,0-1.54-5.25,5.64,5.64,0,0,0-4.46-1.73,6.83,6.83,0,0,0-5.17,2q-1.92,2-1.92,6v14.63h-8.58V746H491v3.46a11.48,11.48,0,0,1,4.24-2.88,14.73,14.73,0,0,1,5.55-1A12.2,12.2,0,0,1,509.68,748.83Z" transform="translate(-190.3 -121.5)"/><path class="cls-1" d="M555.46,774.13a8.85,8.85,0,0,1-3.1,1.4,15.86,15.86,0,0,1-3.88.47q-5.28,0-8.17-2.7c-1.92-1.79-2.89-4.43-2.89-7.92V753.23h-4.56v-6.6h4.56v-7.21H546v7.21h7.37v6.6H546v12a4,4,0,0,0,1,2.89,3.54,3.54,0,0,0,2.72,1,5.53,5.53,0,0,0,3.46-1.1Z" transform="translate(-190.3 -121.5)"/><path class="cls-1" d="M572.65,746.63a15.47,15.47,0,0,1,6-1.1v7.92c-.95-.07-1.59-.11-1.92-.11A7.9,7.9,0,0,0,571,755.4q-2.09,2.07-2.09,6.19v14H560.3V746h8.2v3.91A9.42,9.42,0,0,1,572.65,746.63Z" transform="translate(-190.3 -121.5)"/><path class="cls-1" d="M589.21,774.05a14.54,14.54,0,0,1-5.81-5.42,15.84,15.84,0,0,1,0-15.73,14.54,14.54,0,0,1,5.81-5.42,18.94,18.94,0,0,1,16.74,0,14.59,14.59,0,0,1,5.78,5.42,15.84,15.84,0,0,1,0,15.73,14.59,14.59,0,0,1-5.78,5.42,18.94,18.94,0,0,1-16.74,0Zm13.8-7.32a9.45,9.45,0,0,0,0-11.93,7.13,7.13,0,0,0-5.42-2.23,7.21,7.21,0,0,0-5.44,2.23,9.35,9.35,0,0,0,0,11.93,7.21,7.21,0,0,0,5.44,2.23A7.13,7.13,0,0,0,603,766.73Z" transform="translate(-190.3 -121.5)"/><path class="cls-1" d="M649.35,746v29.59h-8.14V772a11.52,11.52,0,0,1-4.07,2.94,12.79,12.79,0,0,1-5.12,1q-5.82,0-9.24-3.36t-3.41-9.95V746H628v15.45q0,7.16,6,7.15a6.44,6.44,0,0,0,4.95-2c1.24-1.34,1.87-3.33,1.87-6V746Z" transform="translate(-190.3 -121.5)"/><path class="cls-1" d="M686.69,746l-12.48,29.59h-8.86L652.92,746h8.86L670,766.1,678.44,746Z" transform="translate(-190.3 -121.5)"/><path class="cls-1" d="M718.21,763.18H695.82a7,7,0,0,0,2.86,4.35,9.53,9.53,0,0,0,5.61,1.6,11.33,11.33,0,0,0,4.1-.69,10,10,0,0,0,3.33-2.18l4.56,5Q712.11,776,704.07,776a19.34,19.34,0,0,1-8.85-2,14.27,14.27,0,0,1-5.94-5.42,14.87,14.87,0,0,1-2.09-7.87,15.16,15.16,0,0,1,2.06-7.83,14.43,14.43,0,0,1,5.67-5.45,17.54,17.54,0,0,1,15.92-.08,13.71,13.71,0,0,1,5.53,5.36,16.08,16.08,0,0,1,2,8.12C718.37,761,718.32,761.75,718.21,763.18Zm-20.08-9.51a7,7,0,0,0-2.42,4.51h14.58a7.08,7.08,0,0,0-2.42-4.48A7.24,7.24,0,0,0,703,752,7.39,7.39,0,0,0,698.13,753.67Zm7.1-19.42h9.24l-10,7.92H697.8Z" transform="translate(-190.3 -121.5)"/><path class="cls-1" d="M752.91,763.18H730.53a6.92,6.92,0,0,0,2.86,4.35,9.48,9.48,0,0,0,5.61,1.6,11.37,11.37,0,0,0,4.1-.69,9.9,9.9,0,0,0,3.32-2.18l4.57,5Q746.81,776,738.78,776a19.36,19.36,0,0,1-8.86-2,14.39,14.39,0,0,1-5.94-5.42,15.85,15.85,0,0,1,0-15.7,14.4,14.4,0,0,1,5.66-5.45,16.66,16.66,0,0,1,8.06-2,16.41,16.41,0,0,1,7.86,1.87,13.65,13.65,0,0,1,5.53,5.36,16,16,0,0,1,2,8.12C753.08,761,753,761.75,752.91,763.18Zm-20.07-9.51a7,7,0,0,0-2.42,4.51H745a7.08,7.08,0,0,0-2.42-4.48,7.22,7.22,0,0,0-4.84-1.68A7.38,7.38,0,0,0,732.84,753.67Z" transform="translate(-190.3 -121.5)"/></svg>