<svg id="Calque_1" data-name="Calque 1" xmlns="http://www.w3.org/2000/svg" viewBox="0 0 249.54 293.42"><defs><style>.cls-1{fill:#f3c2b7;}.cls-2{fill:#b69289;}.cls-3{fill:#432918;}.cls-4{fill:#22150c;}.cls-5{fill:#321f12;}</style></defs><title>julien</title><ellipse class="cls-1" cx="125.87" cy="151.27" rx="119.2" ry="126.75"/><path class="cls-1" d="M618.38,457.5s2.62-6.94,9.6-3.57c4.87,2.35-.54,37-9.42,32.73C618.56,486.66,615.18,472,618.38,457.5Z" transform="translate(-380.27 -316)"/><path class="cls-1" d="M392,457.5s-2.67-6.94-9.8-3.57c-5,2.35.54,37,9.62,32.73C391.77,486.66,395.22,472,392,457.5Z" transform="translate(-380.27 -316)"/><path class="cls-2" d="M620.76,466.61s.89-6.38,4-7.09.89,12.06-1.33,16.32S620.31,479.39,620.76,466.61Z" transform="translate(-380.27 -316)"/><path class="cls-2" d="M389.66,466.61s-.91-6.38-4.09-7.09-.91,12.06,1.36,16.32S390.12,479.39,389.66,466.61Z" transform="translate(-380.27 -316)"/><path class="cls-3" d="M612.58,497.39,554.12,551s-10.56,25.65-25.65,27.16-22.64,0-22.64,0v15.79S575,603.19,614,528.43Z" transform="translate(-380.27 -316)"/><path class="cls-3" d="M403.1,497.39,461.55,551s10.57,25.65,25.66,27.16,22.63,0,22.63,0v15.79s-69.12,9.25-108.12-65.51Z" transform="translate(-380.27 -316)"/><path class="cls-3" d="M503.8,555.15h12.08s-3.78,13.58-6,12.07S503.8,555.15,503.8,555.15Z" transform="translate(-380.27 -316)"/><path class="cls-3" d="M511.45,531.2s18,6,30.12,15.09-17.29-8.3-30.12-7.55Z" transform="translate(-380.27 -316)"/><path class="cls-3" d="M508.23,531.2s-18,6-30.12,15.09,17.29-8.3,30.12-7.55Z" transform="translate(-380.27 -316)"/><path class="cls-2" d="M403.93,487s35.51-15.67,51.85-27.53,60.36,8.08,97.59-6.49c0,0,33.42,25.12,60.58,34l-3-56-41.5-34.71-131.27,4.53-36.45,37.72Z" transform="translate(-380.27 -316)"/><ellipse class="cls-4" cx="125.87" cy="24.52" rx="34.04" ry="24.52"/><path class="cls-5" d="M623.83,443.46c2,52.08-15.17,77-15.17,77l2.17-14-5.14-50.51-35.3-40.83s-61.53,28.4-119.83,3.55L407.17,447l-4.67,57.8.08,14S376.82,470.34,389,427.48s45.52-94.74,117.12-94.74C583.78,332.74,622.21,401.4,623.83,443.46Z" transform="translate(-380.27 -316)"/><path class="cls-3" d="M509.88,588.77v20.62c15.38,1.06,36.13-20.62,36.13-20.62Z" transform="translate(-380.27 -316)"/><path class="cls-3" d="M473.67,588.77s20.75,21.68,36.13,20.62V588.77Z" transform="translate(-380.27 -316)"/></svg>