<svg id="Calque_1" data-name="Calque 1" xmlns="http://www.w3.org/2000/svg" viewBox="0 0 1804 255.52"><defs><style>.cls-1{fill:#fff;}</style></defs><title>Logo_ALT&amp;apos;ITUDE_2.0_Blanc</title><path class="cls-1" d="M301.92,100.54h55.75V296H478.48v45.43H329.79l-27.87-70.41Z" transform="translate(-57 -90.07)"/><path class="cls-1" d="M537.33,146H460.24V100.54H670.18V146H593.09V341.46H537.33Z" transform="translate(-57 -90.07)"/><path class="cls-1" d="M797.52,100.54h55.75V341.46H797.52Z" transform="translate(-57 -90.07)"/><path class="cls-1" d="M960.31,146H883.22V100.54h209.94V146h-77.09V341.46H960.31Z" transform="translate(-57 -90.07)"/><path class="cls-1" d="M1145.65,317q-28.76-28.56-28.74-81.57V100.54h55.75V233.39q0,64.71,53.69,64.7,26.16,0,39.93-15.66t13.76-49V100.54h55.07V235.45q0,53-28.74,81.57T1226,345.59Q1174.38,345.59,1145.65,317Z" transform="translate(-57 -90.07)"/><path class="cls-1" d="M1390.18,100.54h109.45q39.22,0,69.35,15t46.8,42.16q16.7,27.2,16.7,63.33t-16.7,63.32q-16.69,27.19-46.8,42.16t-69.35,15H1390.18Zm106.69,195.14q36.14,0,57.65-20.13T1576,221q0-34.41-21.51-54.56t-57.65-20.13h-50.94V295.68Z" transform="translate(-57 -90.07)"/><path class="cls-1" d="M1861,296.71v44.75H1674.46V100.54h182.07v44.74H1729.87v52.31h111.86V241H1729.87v55.75Z" transform="translate(-57 -90.07)"/><path class="cls-1" d="M176.19,340.56H83.46c-13.28,0-26.46.15-26.46.15,7.06-22.42,22-70.17,29.13-92.58q8.78-27.7,17.53-55.42c.19-.6.1-1.54.89-1.63s1,.8,1.35,1.31c3.24,4.23,6.44,8.48,9.74,12.65,2,2.6,2.46,2.54,3.83-.41q12.54-27,25-54L165.14,106c1.06-2.3,2.16-4.58,3.26-6.86.23-.46.35-1.19.9-1.23s.88.74,1.16,1.24q5.81,10.26,11.56,20.54l27.78,49.41c2.44,4.35,4.9,8.7,7.28,13.09.61,1.12,1,1.37,1.87.22,3.62-4.61,7.33-9.14,11-13.71,1.48-1.84,1.61-1.84,2.44.36Q242.81,196.54,253.2,224q13.82,36.41,27.62,72.83c2.15,5.66,15,37.7,17.11,43.37,0,0-14.83.35-29.21.35Z" transform="translate(-57 -90.07)"/><path class="cls-1" d="M702.75,90.07h47.31l-3.91,101H706.31Z" transform="translate(-57 -90.07)"/></svg>