<?xml version="1.0" encoding="utf-8"?>
<!-- Generator: Adobe Illustrator 22.1.0, SVG Export Plug-In . SVG Version: 6.00 Build 0)  -->
<svg version="1.1" id="Calque_1" xmlns="http://www.w3.org/2000/svg" xmlns:xlink="http://www.w3.org/1999/xlink" x="0px" y="0px"
	 viewBox="0 0 1920 449" style="enable-background:new 0 0 1920 449;" xml:space="preserve">
<g>
	<path d="M301.9,100.5h55.8V296h120.8v45.4H329.8l-27.9-70.4V100.5z"/>
	<path d="M537.3,146h-77.1v-45.4h209.9V146h-77.1v195.5h-55.8V146z"/>
	<path d="M797.5,100.5h55.8v240.9h-55.8V100.5z"/>
	<path d="M960.3,146h-77.1v-45.4h209.9V146h-77.1v195.5h-55.8V146z"/>
	<path d="M1145.6,317c-19.2-19-28.7-46.2-28.7-81.6V100.5h55.8v132.8c0,43.1,17.9,64.7,53.7,64.7c17.4,0,30.7-5.2,39.9-15.7
		c9.2-10.4,13.8-26.8,13.8-49V100.5h55.1v134.9c0,35.3-9.6,62.5-28.7,81.6c-19.2,19-45.9,28.6-80.4,28.6
		C1191.6,345.6,1164.8,336.1,1145.6,317z"/>
	<path d="M1390.2,100.5h109.4c26.2,0,49.3,5,69.4,15c20.1,10,35.7,24,46.8,42.2c11.1,18.1,16.7,39.2,16.7,63.3
		c0,24.1-5.6,45.2-16.7,63.3c-11.1,18.1-26.7,32.2-46.8,42.2c-20.1,10-43.2,15-69.4,15h-109.4V100.5z M1496.9,295.7
		c24.1,0,43.3-6.7,57.6-20.1c14.3-13.4,21.5-31.6,21.5-54.6c0-22.9-7.2-41.1-21.5-54.6c-14.3-13.4-33.6-20.1-57.6-20.1h-50.9v149.4
		H1496.9z"/>
	<path d="M1861,296.7v44.7h-186.5V100.5h182.1v44.7h-126.7v52.3h111.9V241h-111.9v55.8H1861z"/>
</g>
<g>
	<path d="M176.2,340.6c-30.9,0-61.8,0-92.7,0c-13.3,0-26.5,0.1-26.5,0.1c7.1-22.4,22-70.2,29.1-92.6c5.8-18.5,11.7-37,17.5-55.4
		c0.2-0.6,0.1-1.5,0.9-1.6c0.7-0.1,1,0.8,1.3,1.3c3.2,4.2,6.4,8.5,9.7,12.7c2.1,2.6,2.5,2.5,3.8-0.4c8.4-18,16.7-36,25-54
		c6.9-14.9,13.8-29.7,20.6-44.6c1.1-2.3,2.2-4.6,3.3-6.9c0.2-0.5,0.3-1.2,0.9-1.2c0.7,0,0.9,0.7,1.2,1.2c3.9,6.8,7.7,13.7,11.6,20.5
		c9.3,16.5,18.5,32.9,27.8,49.4c2.4,4.4,4.9,8.7,7.3,13.1c0.6,1.1,1,1.4,1.9,0.2c3.6-4.6,7.3-9.1,11-13.7c1.5-1.8,1.6-1.8,2.4,0.4
		c6.9,18.3,13.9,36.6,20.8,54.9c9.2,24.3,18.4,48.6,27.6,72.8c2.1,5.7,15,37.7,17.1,43.4c0,0-14.8,0.3-29.2,0.3
		C237.9,340.6,207,340.6,176.2,340.6z"/>
</g>
<path d="M702.7,90.1h47.3l-3.9,101h-39.8L702.7,90.1z"/>
</svg>
