<svg id="Calque_1" data-name="Calque 1" xmlns="http://www.w3.org/2000/svg" viewBox="0 0 251.48 271.49"><defs><style>.cls-1{fill:#f3c2b7;}.cls-2{fill:#b69289;}.cls-3{fill:#1e1e1e;}</style></defs><title>maxime</title><ellipse class="cls-1" cx="125.87" cy="144.44" rx="119.2" ry="126.75"/><path class="cls-1" d="M925.83,471.66s2.62-6.94,9.6-3.57c4.87,2.35-.54,37-9.42,32.73C926,500.82,922.63,486.13,925.83,471.66Z" transform="translate(-685.78 -332.74)"/><path class="cls-1" d="M697.46,467.42s-2.67-6.95-9.8-3.58c-5,2.35.55,37,9.62,32.73C697.28,496.57,700.74,481.89,697.46,467.42Z" transform="translate(-685.78 -332.74)"/><path class="cls-2" d="M926.27,476.53s.89-6.39,4-7.1.89,12.07-1.34,16.33S925.82,489.3,926.27,476.53Z" transform="translate(-685.78 -332.74)"/><path class="cls-2" d="M695.17,476.53s-.91-6.39-4.09-7.1-.91,12.07,1.36,16.33S695.63,489.3,695.17,476.53Z" transform="translate(-685.78 -332.74)"/><path d="M809.32,565.07h12.07s-3.77,13.58-6,12.07S809.32,565.07,809.32,565.07Z" transform="translate(-685.78 -332.74)"/><path d="M817,541.11s18,6,30.12,15.09-17.29-8.3-30.12-7.54Z" transform="translate(-685.78 -332.74)"/><path d="M813.74,541.11s-18,6-30.12,15.09,17.3-8.3,30.12-7.54Z" transform="translate(-685.78 -332.74)"/><path class="cls-2" d="M709.45,496.93s35.5-15.67,51.84-27.53,60.36,8.08,97.59-6.48c0,0,33.43,25.12,60.59,34l-3-56L875,406.24l-131.27,4.52-36.45,37.73Z" transform="translate(-685.78 -332.74)"/><path d="M929.34,455.34c7.43,50.26-15.17,75-15.17,75l2.18-13.67-5.15-49.23-35.3-39.8s-61.53,27.69-119.83,3.46L712.68,458.8,708,515.12l.08,13.67s-24-46.8-13.56-89c19.69-80,45.53-92.33,117.12-92.33C882.84,347.43,914.53,355,929.34,455.34Z" transform="translate(-685.78 -332.74)"/><path d="M919.67,514.72s-20.18,78.18-108.09,81.55c-87.92-3.37-108.1-81.55-108.1-81.55L700,521.17c28.62,84.52,96.76,84,111.56,82.82,14.79,1.16,82.93,1.7,111.55-82.82Z" transform="translate(-685.78 -332.74)"/><path class="cls-3" d="M756.07,431.11s-35.59-3-53.43-19.29c0,0-26,49.17.84,107.43l4.63,8,7.09-69Z" transform="translate(-685.78 -332.74)"/><path class="cls-3" d="M875.9,427.65s39.54-8.59,44.32-15.83c0,0,28.83,81.32-5.76,116.69,0,0-1.5-53.93-3.26-61.06Z" transform="translate(-685.78 -332.74)"/><path d="M867.77,368.49s-4.53-27.72-16.41-30-48.58,0-55.7-4.52-16.73,4.52-6,9-22-11.42-18.69-3.39-31.45-1.49-22.62,6.39S725,374,726.79,385.66,867.77,368.49,867.77,368.49Z" transform="translate(-685.78 -332.74)"/><circle cx="246.48" cy="162.53" r="3.28"/></svg>